<?xml version="1.0" encoding="utf-8"?>
<!-- Generator: Adobe Illustrator 24.3.0, SVG Export Plug-In . SVG Version: 6.00 Build 0)  -->
<svg version="1.1" id="圖層_2_1_" xmlns="http://www.w3.org/2000/svg" xmlns:xlink="http://www.w3.org/1999/xlink" x="0px"
	 y="0px" viewBox="0 0 204.4 169.4" style="enable-background:new 0 0 204.4 169.4;" xml:space="preserve">
<style type="text/css">
	.st0{fill:none;stroke:#B1AAA3;stroke-width:0.75;stroke-miterlimit:10;}
	.st1{fill:url(#SVGID_1_);}
</style>
<polyline class="st0" points="3.9,132.8 3.9,51.4 9.1,51.4 9.1,49.7 "/>
<line class="st0" x1="4.7" y1="132.8" x2="4.7" y2="88.1"/>
<polyline class="st0" points="3.9,81.7 10.1,81.7 10.1,88.1 3.9,88.1 "/>
<polyline class="st0" points="4.7,81.7 4.7,52.3 10.3,52.3 10.3,49.7 "/>
<line class="st0" x1="10.3" y1="52.3" x2="10.3" y2="63.2"/>
<line class="st0" x1="4.7" y1="63.2" x2="87" y2="63.2"/>
<polyline class="st0" points="46.6,63.2 46.6,54.1 55.6,54.1 55.6,63.2 "/>
<rect x="87" y="58.6" class="st0" width="3.8" height="41.3"/>
<line class="st0" x1="87" y1="87.8" x2="90.8" y2="87.8"/>
<line class="st0" x1="87" y1="70.7" x2="90.8" y2="70.7"/>
<line class="st0" x1="4.7" y1="66.9" x2="87" y2="66.9"/>
<line class="st0" x1="75.4" y1="63.2" x2="75.4" y2="66.9"/>
<line class="st0" x1="76.5" y1="63.2" x2="76.5" y2="66.9"/>
<line class="st0" x1="65" y1="63.2" x2="65" y2="66.9"/>
<line class="st0" x1="66.2" y1="63.2" x2="66.2" y2="66.9"/>
<rect x="31.2" y="75.8" class="st0" width="3.6" height="14.9"/>
<rect x="48.1" y="81.7" class="st0" width="20.4" height="4.2"/>
<line class="st0" x1="68.5" y1="85.8" x2="68.5" y2="114"/>
<line class="st0" x1="65.8" y1="85.8" x2="65.8" y2="114"/>
<polyline class="st0" points="4.7,99.9 53.4,99.9 53.4,101.9 4.7,101.9 "/>
<line class="st0" x1="7" y1="66.9" x2="7" y2="81.7"/>
<polyline class="st0" points="7,88.1 7,98.2 24.9,98.2 24.9,99.9 "/>
<line class="st0" x1="10.6" y1="101.9" x2="10.6" y2="132.8"/>
<rect x="3.9" y="132.8" class="st0" width="6.4" height="6.4"/>
<polyline class="st0" points="10.3,132.8 79,132.8 79,129.9 85.4,129.9 85.4,132.8 151.1,132.8 151.1,129.9 157.2,129.9 
	157.2,132.8 200.9,132.8 200.9,126.1 201.7,126.1 201.7,114.2 200.9,114.2 200.9,45.3 201.7,45.3 201.7,32.9 200.9,32.9 200.9,28.5 
	157.4,28.5 "/>
<polyline class="st0" points="54,132.8 54,114 113.8,114 113.8,99.9 121.1,96.1 121.1,63.4 113.8,59.5 113.8,32.6 "/>
<line class="st0" x1="114.8" y1="32.6" x2="114.8" y2="60"/>
<line class="st0" x1="114.8" y1="99.4" x2="114.8" y2="130.7"/>
<polyline class="st0" points="113.8,129.4 113.8,114.9 55.1,114.9 55.1,132.8 "/>
<polyline class="st0" points="79,134.8 79,134.1 54.5,134.1 "/>
<polyline class="st0" points="53.2,134.8 53.2,134.1 48.3,134.1 "/>
<polyline class="st0" points="35.1,134.8 35.1,134.1 39.9,134.1 "/>
<line class="st0" x1="34" y1="134.8" x2="34" y2="132.8"/>
<line class="st0" x1="32.3" y1="132.8" x2="32.3" y2="134.1"/>
<line class="st0" x1="31.2" y1="134.1" x2="34" y2="134.1"/>
<line class="st0" x1="11.6" y1="132.8" x2="11.6" y2="134.1"/>
<line class="st0" x1="10.3" y1="134.1" x2="12.7" y2="134.1"/>
<line class="st0" x1="22.2" y1="132.8" x2="22.2" y2="134.1"/>
<line class="st0" x1="20.9" y1="134.1" x2="23.4" y2="134.1"/>
<line class="st0" x1="49.1" y1="132.8" x2="49.1" y2="134.1"/>
<line class="st0" x1="39.3" y1="134.1" x2="39.3" y2="132.8"/>
<line class="st0" x1="151.1" y1="28.5" x2="85.4" y2="28.5"/>
<line class="st0" x1="79" y1="28.5" x2="46.9" y2="28.5"/>
<rect x="151.1" y="27.6" class="st0" width="6.3" height="12.5"/>
<rect x="79" y="27.6" class="st0" width="6.3" height="12.5"/>
<polyline class="st0" points="200.9,132.8 202.4,132.8 202.4,125 201.7,125 "/>
<polyline class="st0" points="201.7,115.5 202.4,115.5 202.4,106.4 201.7,106.4 201.7,114.2 "/>
<polyline class="st0" points="202.4,105.4 201.7,105.4 201.7,44.5 202.4,44.5 "/>
<polyline class="st0" points="202.4,95 201.7,95 201.7,34.1 202.4,34.1 "/>
<polyline class="st0" points="202.4,93.9 201.7,93.9 201.7,33 202.4,33 "/>
<line class="st0" x1="201.7" y1="50.5" x2="202.4" y2="50.5"/>
<line class="st0" x1="201.7" y1="56" x2="202.4" y2="56"/>
<line class="st0" x1="201.7" y1="61.5" x2="202.4" y2="61.5"/>
<line class="st0" x1="201.7" y1="67" x2="202.4" y2="67"/>
<line class="st0" x1="201.7" y1="72.4" x2="202.4" y2="72.4"/>
<line class="st0" x1="201.7" y1="87.9" x2="202.4" y2="87.9"/>
<polyline class="st0" points="200.9,28.5 200.9,27.2 189.1,27.2 "/>
<polyline class="st0" points="188.5,27.2 46.9,27.2 46.9,32 10.3,32 "/>
<rect x="48.1" y="31.2" class="st0" width="2.7" height="1.3"/>
<rect x="51.8" y="31.2" class="st0" width="2.7" height="1.3"/>
<rect x="55.5" y="31.2" class="st0" width="2.7" height="1.3"/>
<rect x="59.2" y="31.2" class="st0" width="2.7" height="1.3"/>
<rect x="62.9" y="31.2" class="st0" width="2.7" height="1.3"/>
<rect x="66.6" y="31.2" class="st0" width="2.7" height="1.3"/>
<rect x="70.3" y="31.2" class="st0" width="2.7" height="1.3"/>
<rect x="74" y="31.2" class="st0" width="2.7" height="1.3"/>
<rect x="87.2" y="31.2" class="st0" width="2.7" height="1.3"/>
<rect x="90.9" y="31.2" class="st0" width="2.7" height="1.3"/>
<rect x="94.7" y="31.2" class="st0" width="2.7" height="1.3"/>
<rect x="98.4" y="31.2" class="st0" width="2.7" height="1.3"/>
<rect x="102.1" y="31.2" class="st0" width="2.7" height="1.3"/>
<rect x="105.8" y="31.2" class="st0" width="2.7" height="1.3"/>
<rect x="109.5" y="31.2" class="st0" width="2.7" height="1.3"/>
<rect x="113.2" y="31.2" class="st0" width="2.7" height="1.3"/>
<rect x="116.9" y="31.2" class="st0" width="2.7" height="1.3"/>
<rect x="120.6" y="31.2" class="st0" width="2.7" height="1.3"/>
<rect x="124.3" y="31.2" class="st0" width="2.7" height="1.3"/>
<rect x="128" y="31.2" class="st0" width="2.7" height="1.3"/>
<rect x="131.7" y="31.2" class="st0" width="2.7" height="1.3"/>
<rect x="135.4" y="31.2" class="st0" width="2.7" height="1.3"/>
<rect x="139.1" y="31.2" class="st0" width="2.7" height="1.3"/>
<rect x="142.8" y="31.2" class="st0" width="2.7" height="1.3"/>
<rect x="146.4" y="31.2" class="st0" width="2.7" height="1.3"/>
<rect x="159.7" y="31.2" class="st0" width="2.7" height="1.3"/>
<rect x="163.4" y="31.2" class="st0" width="2.7" height="1.3"/>
<rect x="167.1" y="31.2" class="st0" width="2.7" height="1.3"/>
<rect x="170.8" y="31.2" class="st0" width="2.7" height="1.3"/>
<rect x="174.5" y="31.2" class="st0" width="2.7" height="1.3"/>
<rect x="178.2" y="31.2" class="st0" width="2.7" height="1.3"/>
<rect x="181.9" y="31.2" class="st0" width="2.7" height="1.3"/>
<rect x="185.6" y="31.2" class="st0" width="2.7" height="1.3"/>
<rect x="189.2" y="31.2" class="st0" width="2.7" height="1.3"/>
<rect x="77.8" y="31.2" class="st0" width="1.2" height="1.3"/>
<rect x="85.4" y="31.2" class="st0" width="1" height="1.3"/>
<rect x="150.1" y="31.2" class="st0" width="1" height="1.3"/>
<rect x="157.4" y="31.2" class="st0" width="1" height="1.3"/>
<polyline class="st0" points="45.3,27.2 45.3,30.8 30.8,30.8 "/>
<line class="st0" x1="30.8" y1="27.2" x2="30.8" y2="32"/>
<rect x="3.9" y="30.6" class="st0" width="6.4" height="6.4"/>
<polyline class="st0" points="10.3,30.8 29.5,30.8 29.5,27.2 27.1,27.2 "/>
<line class="st0" x1="33.3" y1="30.8" x2="34.9" y2="27.2"/>
<line class="st0" x1="33.3" y1="27.2" x2="33.3" y2="30.8"/>
<line class="st0" x1="37.1" y1="30.8" x2="35.6" y2="27.2"/>
<line class="st0" x1="37.1" y1="27.2" x2="37.1" y2="30.8"/>
<polyline class="st0" points="24.1,27.2 24.1,29.4 15,29.4 "/>
<line class="st0" x1="10.3" y1="27.2" x2="10.3" y2="30.6"/>
<polyline class="st0" points="7.8,27.2 6.5,27.2 6.5,30.6 "/>
<polyline class="st0" points="3.9,30.6 2.1,30.6 2.1,32.8 3.9,32.8 "/>
<polyline class="st0" points="2.1,37 3.4,38.2 9.1,38.2 9.1,39.8 "/>
<line class="st0" x1="10.3" y1="37" x2="10.3" y2="39.8"/>
<rect x="67" y="47.8" class="st0" width="12" height="6.3"/>
<line class="st0" x1="67" y1="50.9" x2="79" y2="50.9"/>
<polyline class="st0" points="85.4,40 88.9,40 88.9,32.6 "/>
<line class="st0" x1="80.8" y1="30.5" x2="83.4" y2="30.5"/>
<line class="st0" x1="80.8" y1="37.3" x2="83.4" y2="37.3"/>
<line class="st0" x1="82.2" y1="37.3" x2="82.2" y2="30.5"/>
<line class="st0" x1="80.3" y1="32.9" x2="80.3" y2="35.1"/>
<line class="st0" x1="80.3" y1="34.4" x2="82.2" y2="34.4"/>
<line class="st0" x1="80.3" y1="33.6" x2="82.2" y2="33.6"/>
<polyline class="st0" points="82.2,33.1 84.4,33.1 84.4,34.6 83.3,35.4 82.2,35.4 "/>
<line class="st0" x1="152.8" y1="30.5" x2="155.4" y2="30.5"/>
<line class="st0" x1="152.8" y1="37.3" x2="155.4" y2="37.3"/>
<line class="st0" x1="154.2" y1="37.3" x2="154.2" y2="30.5"/>
<line class="st0" x1="152.3" y1="32.9" x2="152.3" y2="35.1"/>
<line class="st0" x1="152.3" y1="34.4" x2="154.2" y2="34.4"/>
<line class="st0" x1="152.3" y1="33.6" x2="154.2" y2="33.6"/>
<polyline class="st0" points="154.2,33.1 156.5,33.1 156.5,34.6 155.3,35.4 154.2,35.4 "/>
<line class="st0" x1="46.9" y1="29" x2="79" y2="29"/>
<line class="st0" x1="85.4" y1="29" x2="151.1" y2="29"/>
<line class="st0" x1="157.4" y1="29" x2="200.9" y2="29"/>
<polyline class="st0" points="193.5,30.3 195.8,30.3 195.8,31.2 200.9,32 193.5,32 193.5,28.5 "/>
<line class="st0" x1="193.5" y1="29.8" x2="200.9" y2="29.8"/>
<polyline class="st0" points="193.5,32.6 157.4,32.6 157.4,31.2 193.5,31.2 "/>
<rect x="85.4" y="31.2" class="st0" width="65.7" height="1.3"/>
<polyline class="st0" points="46.9,31.2 79,31.2 79,32.6 25.9,32.6 "/>
<line class="st0" x1="193.5" y1="32.6" x2="200.9" y2="32.6"/>
<polyline class="st0" points="24.8,32 24.8,44.4 25.9,44.4 25.9,32 "/>
<line class="st0" x1="24.8" y1="32.6" x2="10.3" y2="32.6"/>
<rect x="128.5" y="44.5" class="st0" width="38.3" height="8.4"/>
<line class="st0" x1="137.9" y1="44.5" x2="137.9" y2="52.9"/>
<line class="st0" x1="147.6" y1="44.5" x2="147.6" y2="52.9"/>
<line class="st0" x1="157.1" y1="44.5" x2="157.1" y2="52.9"/>
<rect x="142.8" y="63.2" class="st0" width="7.3" height="8.5"/>
<rect x="142.8" y="87.8" class="st0" width="7.3" height="8.5"/>
<rect x="158.4" y="87.2" class="st0" width="8.5" height="9.6"/>
<rect x="158.4" y="62.6" class="st0" width="8.5" height="9.6"/>
<line class="st0" x1="161.8" y1="87.2" x2="161.8" y2="72.2"/>
<line class="st0" x1="166.9" y1="72.2" x2="166.9" y2="87.2"/>
<rect x="128.3" y="106.6" class="st0" width="38.6" height="8.3"/>
<line class="st0" x1="137.9" y1="106.6" x2="137.9" y2="114.9"/>
<line class="st0" x1="147.6" y1="106.6" x2="147.6" y2="114.9"/>
<line class="st0" x1="157.2" y1="106.6" x2="157.2" y2="114.9"/>
<rect x="131.5" y="114.9" class="st0" width="3.5" height="4"/>
<rect x="158.7" y="114.9" class="st0" width="7.4" height="5.9"/>
<rect x="136.7" y="114.9" class="st0" width="22" height="4"/>
<line class="st0" x1="147.6" y1="114.9" x2="147.6" y2="118.9"/>
<rect x="162.4" y="129.4" class="st0" width="2.7" height="1.3"/>
<rect x="158.7" y="129.4" class="st0" width="2.7" height="1.3"/>
<rect x="195.6" y="129.4" class="st0" width="2.7" height="1.3"/>
<rect x="199.4" y="129.4" class="st0" width="1.5" height="1.3"/>
<rect x="166.1" y="129.4" class="st0" width="2.7" height="1.3"/>
<rect x="169.8" y="129.4" class="st0" width="2.7" height="1.3"/>
<rect x="173.5" y="129.4" class="st0" width="2.7" height="1.3"/>
<rect x="177.2" y="129.4" class="st0" width="2.7" height="1.3"/>
<rect x="180.9" y="129.4" class="st0" width="2.7" height="1.3"/>
<rect x="184.6" y="129.4" class="st0" width="2.7" height="1.3"/>
<rect x="188.3" y="129.4" class="st0" width="2.7" height="1.3"/>
<rect x="191.9" y="129.4" class="st0" width="2.7" height="1.3"/>
<rect x="115.1" y="129.4" class="st0" width="2.7" height="1.3"/>
<rect x="111.4" y="129.4" class="st0" width="2.7" height="1.3"/>
<rect x="148.4" y="129.4" class="st0" width="2.7" height="1.3"/>
<rect x="118.8" y="129.4" class="st0" width="2.7" height="1.3"/>
<rect x="122.5" y="129.4" class="st0" width="2.7" height="1.3"/>
<rect x="126.2" y="129.4" class="st0" width="2.7" height="1.3"/>
<rect x="129.9" y="129.4" class="st0" width="2.7" height="1.3"/>
<rect x="93" y="129.4" class="st0" width="2.7" height="1.3"/>
<rect x="89.9" y="129.4" class="st0" width="2.1" height="1.3"/>
<rect x="96.7" y="129.4" class="st0" width="2.7" height="1.3"/>
<rect x="100.4" y="129.4" class="st0" width="2.7" height="1.3"/>
<rect x="104.1" y="129.4" class="st0" width="2.7" height="1.3"/>
<rect x="107.8" y="129.4" class="st0" width="2.7" height="1.3"/>
<rect x="133.6" y="129.4" class="st0" width="2.7" height="1.3"/>
<rect x="137.3" y="129.4" class="st0" width="2.7" height="1.3"/>
<rect x="141.1" y="129.4" class="st0" width="2.7" height="1.3"/>
<rect x="144.6" y="129.4" class="st0" width="2.7" height="1.3"/>
<line class="st0" x1="200.9" y1="130.7" x2="157.2" y2="130.7"/>
<line class="st0" x1="151.1" y1="130.7" x2="89.5" y2="130.7"/>
<polyline class="st0" points="89.5,131.4 89.5,130.3 88.1,130.3 88.1,131.4 "/>
<line class="st0" x1="86.6" y1="129.9" x2="86.6" y2="131.4"/>
<line class="st0" x1="85.4" y1="129.9" x2="89.9" y2="129.9"/>
<polyline class="st0" points="81.2,132.4 81.2,132.8 83.2,132.8 83.2,132.4 "/>
<line class="st0" x1="82.2" y1="132.8" x2="82.2" y2="134.8"/>
<polyline class="st0" points="85.4,134.8 85.4,134.1 115.1,134.1 115.1,134.8 "/>
<polyline class="st0" points="116,134.8 116,134.1 140.4,134.1 140.4,134.8 "/>
<polyline class="st0" points="141.3,134.8 141.3,134.1 151.1,134.1 151.1,134.8 "/>
<polyline class="st0" points="157.2,134.8 157.2,134.1 175.7,134.1 175.7,134.8 "/>
<polyline class="st0" points="176.5,134.8 176.5,134.1 187.3,134.1 187.3,134.8 "/>
<polyline class="st0" points="188.6,134.8 188.6,134.1 202.4,134.1 "/>
<polyline class="st0" points="153,132.3 153,132.8 155.3,132.8 155.3,132.3 "/>
<line class="st0" x1="154.1" y1="134.8" x2="154.1" y2="132.8"/>
<line class="st0" x1="8.7" y1="30.5" x2="8.7" y2="27.2"/>
<line class="st0" x1="12.1" y1="135.3" x2="12.1" y2="139.1"/>
<line class="st0" x1="21.4" y1="139.1" x2="21.4" y2="135.3"/>
<path class="st0" d="M20.5,138.9c-3.7-1.1-3.7-5-3.7-5s0.1,3.9-3.7,5"/>
<line class="st0" x1="22.7" y1="135.3" x2="22.7" y2="139.1"/>
<line class="st0" x1="32" y1="139.1" x2="32" y2="135.3"/>
<path class="st0" d="M31.1,138.9c-3.7-1.1-3.7-5-3.7-5s0.1,3.9-3.7,5"/>
<line class="st0" x1="8.5" y1="39.6" x2="3.9" y2="39.6"/>
<line class="st0" x1="3.9" y1="49.7" x2="8.5" y2="49.7"/>
<path class="st0" d="M4.1,48.7c1.3-4,6-4.1,6-4.1s-4.7,0.1-6-4.1"/>
<line class="st0" x1="24.1" y1="28.9" x2="22.7" y2="27.2"/>
<g>
	<linearGradient id="SVGID_1_" gradientUnits="userSpaceOnUse" x1="41.0815" y1="49.5687" x2="35.6253" y2="57.6485">
		<stop  offset="0" style="stop-color:#FFD644"/>
		<stop  offset="1" style="stop-color:#FFA72E"/>
	</linearGradient>
	<path class="st1" d="M33.4,61.6c-0.4,0.2-0.8-0.1-0.7-0.6l0.8-4.7L30.2,53c-0.3-0.3-0.1-0.9,0.3-0.9l4.6-0.7l2-4.3
		c0.2-0.4,0.7-0.4,0.9,0l2,4.3l4.6,0.7c0.4,0.1,0.6,0.6,0.3,0.9l-3.3,3.4l0.8,4.7c0.1,0.4-0.3,0.8-0.7,0.6l-4.1-2.3L33.4,61.6
		L33.4,61.6z"/>
</g>
</svg>
