<?xml version="1.0" encoding="utf-8"?>
<!-- Generator: Adobe Illustrator 24.3.0, SVG Export Plug-In . SVG Version: 6.00 Build 0)  -->
<svg version="1.1" id="圖層_2_1_" xmlns="http://www.w3.org/2000/svg" xmlns:xlink="http://www.w3.org/1999/xlink" x="0px"
	 y="0px" viewBox="0 0 204.4 169.4" style="enable-background:new 0 0 204.4 169.4;" xml:space="preserve">
<style type="text/css">
	.st0{fill:none;stroke:#B1AAA3;stroke-width:0.75;stroke-miterlimit:10;}
	.st1{fill:url(#SVGID_1_);}
</style>
<g>
	<polyline class="st0" points="15.1,163.3 15.1,164.3 5.7,164.3 7.3,145.6 5.1,122.9 7,96.6 5.1,72.7 7,47.8 4.6,23.6 5.4,13.9 
		12.7,13.9 12.7,8.5 29.2,6.6 45.8,6.6 45.8,13.9 81,13.9 81,6.6 99.2,6.6 99.2,15.8 121.4,15.8 121.4,8.2 	"/>
	<polyline class="st0" points="119.3,13.6 119.3,8.5 135.3,6.6 140.4,6.6 	"/>
	<polyline class="st0" points="146.1,6.6 152.6,6.6 167.2,8.5 167.2,13.6 172.7,13.6 172.7,8.5 189.2,6.6 194.1,6.6 194.1,64 
		122,64 122,28.2 	"/>
	<polyline class="st0" points="120.6,15.8 120.6,64 112.8,64 112.8,57.3 120.6,57.3 	"/>
	<polyline class="st0" points="200.1,144 199,144 199,128.8 194.4,128.8 194.4,101.4 189.7,101.4 189.7,64 	"/>
	<line class="st0" x1="200.1" y1="142.9" x2="200.1" y2="95.2"/>
	<polyline class="st0" points="199,128.8 199,97.9 194.1,97.9 194.1,64 	"/>
	<polyline class="st0" points="199,95.2 199,96.6 195.7,96.6 195.7,6.6 	"/>
	<polyline class="st0" points="200.1,94.4 197.3,94.4 197.3,74.9 200.1,74.9 	"/>
	<polyline class="st0" points="200.1,73.8 197.3,73.8 197.3,6.6 	"/>
	<line class="st0" x1="200.1" y1="11.2" x2="197.3" y2="11.2"/>
	<polyline class="st0" points="199.5,38.5 199.5,38.5 198.7,38.5 198.7,54.5 199.5,54.5 	"/>
	<line class="st0" x1="167.2" y1="8.9" x2="172.7" y2="8.9"/>
	<polyline class="st0" points="157.2,6.3 167.8,7.4 172.7,7.4 182.7,6.3 	"/>
	<polyline class="st0" points="104.3,6.3 114.9,7.4 119.8,7.4 129.8,6.3 	"/>
	<polyline class="st0" points="50.7,6.3 61.2,7.4 66.1,7.4 76.1,6.3 	"/>
	<polyline class="st0" points="99.2,6.6 114.1,8.5 114.1,13.6 	"/>
	<line class="st0" x1="113" y1="13.6" x2="120.3" y2="13.6"/>
	<line class="st0" x1="114.1" y1="8.9" x2="119.3" y2="8.9"/>
	<line class="st0" x1="60.7" y1="9" x2="66.1" y2="9"/>
	<polyline class="st0" points="12.7,9 7.6,9 7.6,13.9 	"/>
	<line class="st0" x1="99.2" y1="8.5" x2="114.1" y2="8.5"/>
	<polyline class="st0" points="45.8,6.6 60.7,8.5 60.7,13.9 	"/>
	<polyline class="st0" points="81,6.6 66.1,8.5 66.1,13.9 	"/>
	<polyline class="st0" points="22.7,6.3 4.8,7.9 3.5,23.9 5.7,47.8 3.5,72.7 5.4,96.6 3.5,123.1 5.7,145.6 4,164.3 	"/>
	<polyline class="st0" points="6.2,58.1 12.7,58.1 12.7,63.2 5.8,63.2 	"/>
	<polyline class="st0" points="60.4,156.5 60.4,63.8 5.8,63.8 	"/>
	<polyline class="st0" points="66.7,162.9 59.9,162.9 59.9,156.5 66.7,156.5 	"/>
	<polyline class="st0" points="53.9,163.3 66.7,163.3 66.7,144.3 68.8,144.3 	"/>
	<polyline class="st0" points="6.5,155.2 14.3,155.1 14.3,161.9 	"/>
	<rect x="14.1" y="161.9" class="st0" width="3.4" height="1.4"/>
	<rect x="18" y="161.9" class="st0" width="3.4" height="1.4"/>
	<rect x="22" y="161.9" class="st0" width="3.4" height="1.4"/>
	<rect x="25.9" y="161.9" class="st0" width="3.4" height="1.4"/>
	<rect x="29.8" y="161.9" class="st0" width="3.4" height="1.4"/>
	<rect x="33.8" y="161.9" class="st0" width="3.4" height="1.4"/>
	<rect x="37.7" y="161.9" class="st0" width="3.4" height="1.4"/>
	<rect x="60.4" y="114.6" class="st0" width="1.4" height="3.4"/>
	<rect x="60.4" y="118.6" class="st0" width="1.4" height="3.4"/>
	<rect x="60.4" y="122.5" class="st0" width="1.4" height="3.4"/>
	<rect x="60.4" y="126.5" class="st0" width="1.4" height="3.4"/>
	<rect x="60.4" y="130.4" class="st0" width="1.4" height="3.4"/>
	<rect x="60.3" y="134.3" class="st0" width="1.4" height="3.4"/>
	<rect x="60.4" y="138.3" class="st0" width="1.4" height="3.4"/>
	<rect x="60.4" y="142.4" class="st0" width="1.4" height="3.4"/>
	<rect x="60.4" y="146.4" class="st0" width="1.4" height="3.4"/>
	<rect x="60.4" y="150.5" class="st0" width="1.4" height="3.4"/>
	<rect x="60.4" y="66.4" class="st0" width="1.4" height="3.4"/>
	<rect x="60.4" y="70.3" class="st0" width="1.4" height="3.4"/>
	<rect x="60.3" y="74.2" class="st0" width="1.4" height="3.4"/>
	<rect x="60.4" y="78.2" class="st0" width="1.4" height="3.4"/>
	<rect x="60.3" y="82.1" class="st0" width="1.4" height="3.4"/>
	<rect x="60.4" y="86.1" class="st0" width="1.4" height="3.4"/>
	<rect x="60.4" y="90" class="st0" width="1.4" height="3.4"/>
	<rect x="60.4" y="94.1" class="st0" width="1.4" height="3.4"/>
	<rect x="60.4" y="98.2" class="st0" width="1.4" height="3.4"/>
	<rect x="60.4" y="102.2" class="st0" width="1.4" height="3.4"/>
	<rect x="48.1" y="62.4" class="st0" width="3.3" height="1.4"/>
	<rect x="52.1" y="62.4" class="st0" width="3.3" height="1.4"/>
	<rect x="56.1" y="62.4" class="st0" width="3.3" height="1.4"/>
	<rect x="44.3" y="62.4" class="st0" width="3.3" height="1.4"/>
	<rect x="40.6" y="62.4" class="st0" width="3.3" height="1.4"/>
	<rect x="36.8" y="62.4" class="st0" width="3.3" height="1.4"/>
	<rect x="33" y="62.4" class="st0" width="3.3" height="1.4"/>
	<rect x="29.1" y="62.4" class="st0" width="3.3" height="1.4"/>
	<rect x="25.3" y="62.4" class="st0" width="3.3" height="1.4"/>
	<rect x="21.4" y="62.4" class="st0" width="3.3" height="1.4"/>
	<rect x="17.5" y="62.4" class="st0" width="3.3" height="1.4"/>
	<rect x="13.6" y="62.4" class="st0" width="3.3" height="1.4"/>
	<rect x="110.3" y="142.9" class="st0" width="3.3" height="1.4"/>
	<rect x="114.2" y="142.9" class="st0" width="3.3" height="1.4"/>
	<rect x="118.1" y="142.9" class="st0" width="3.3" height="1.4"/>
	<rect x="106.5" y="142.9" class="st0" width="3.3" height="1.4"/>
	<rect x="102.7" y="142.9" class="st0" width="3.3" height="1.4"/>
	<rect x="98.9" y="142.9" class="st0" width="3.3" height="1.4"/>
	<rect x="95" y="142.9" class="st0" width="3.3" height="1.4"/>
	<rect x="91.2" y="142.9" class="st0" width="3.3" height="1.4"/>
	<rect x="87.4" y="142.9" class="st0" width="3.3" height="1.4"/>
	<rect x="83.4" y="142.9" class="st0" width="3.3" height="1.4"/>
	<rect x="79.6" y="142.9" class="st0" width="3.3" height="1.4"/>
	<rect x="153" y="142.9" class="st0" width="3.3" height="1.4"/>
	<rect x="157" y="142.9" class="st0" width="3.3" height="1.4"/>
	<rect x="160.8" y="142.9" class="st0" width="3.3" height="1.4"/>
	<rect x="164.5" y="142.9" class="st0" width="3.3" height="1.4"/>
	<rect x="168.5" y="142.9" class="st0" width="3.3" height="1.4"/>
	<rect x="172.5" y="142.9" class="st0" width="3.3" height="1.4"/>
	<rect x="176.5" y="142.9" class="st0" width="3.3" height="1.4"/>
	<rect x="180.5" y="142.9" class="st0" width="3.3" height="1.4"/>
	<rect x="149.4" y="142.9" class="st0" width="3.3" height="1.4"/>
	<rect x="145.6" y="142.9" class="st0" width="3.3" height="1.4"/>
	<rect x="141.8" y="142.9" class="st0" width="3.3" height="1.4"/>
	<rect x="138.1" y="142.9" class="st0" width="3.3" height="1.4"/>
	<rect x="134.3" y="142.9" class="st0" width="3.3" height="1.4"/>
	<rect x="130.6" y="142.9" class="st0" width="3.3" height="1.4"/>
	<rect x="126.7" y="142.9" class="st0" width="3.3" height="1.4"/>
	<rect x="122.9" y="142.9" class="st0" width="3.3" height="1.4"/>
	<line class="st0" x1="5.8" y1="162.7" x2="14.1" y2="162.7"/>
	<polyline class="st0" points="6.9,162.7 6.9,156.5 13.2,156.5 13.2,162.7 	"/>
	<polyline class="st0" points="6.2,107.6 12.7,107.6 12.7,112.8 5.8,112.8 	"/>
	<line class="st0" x1="7.3" y1="107.6" x2="7.3" y2="112.8"/>
	<polyline class="st0" points="78.3,144.3 186,144.3 186,137.8 187.9,137.8 	"/>
	<line class="st0" x1="196.5" y1="136.7" x2="199" y2="136.7"/>
	<polyline class="st0" points="61.8,144.3 65.8,144.3 65.8,148.6 	"/>
	<polyline class="st0" points="64.3,156.5 64.3,148.6 66.7,148.6 	"/>
	<line class="st0" x1="15.1" y1="163.3" x2="43.9" y2="163.3"/>
	<line class="st0" x1="7.3" y1="58.1" x2="7.3" y2="63.2"/>
	<line class="st0" x1="12.7" y1="62.4" x2="60.4" y2="62.4"/>
	<polyline class="st0" points="60.4,63.8 60.4,58.1 66.1,58.1 66.1,112.8 	"/>
	<line class="st0" x1="60.4" y1="63.2" x2="66.1" y2="63.2"/>
	<line class="st0" x1="60.4" y1="64.8" x2="66.1" y2="64.8"/>
	<polyline class="st0" points="66.1,58.1 82.9,52.9 86.2,94.9 89.4,94.9 89.4,79.2 	"/>
	<polyline class="st0" points="61.8,90.1 66.1,90 85.3,84 	"/>
	<polyline class="st0" points="60.4,112.8 94.6,112.8 94.6,107.7 60.4,107.7 	"/>
	<polyline class="st0" points="94.6,112.8 94.6,125.6 91.6,125.6 91.6,112.8 	"/>
	<line class="st0" x1="85" y1="79.2" x2="116" y2="79.2"/>
	<polyline class="st0" points="84.8,76.4 122,76.4 122,144.3 	"/>
	<polyline class="st0" points="122,113.3 112.8,113.3 112.8,79.2 	"/>
	<line class="st0" x1="116" y1="76.4" x2="116" y2="107.1"/>
	<line class="st0" x1="112.8" y1="107.1" x2="122" y2="107.1"/>
	<line class="st0" x1="120.6" y1="107.1" x2="120.6" y2="113.3"/>
	<path class="st0" d="M87.1,112.8c0,0,0.2,4,4.5,4.6"/>
	<polyline class="st0" points="95.9,140.2 95.9,142.9 112.8,142.9 112.8,140.2 	"/>
	<line class="st0" x1="61.8" y1="64.8" x2="61.8" y2="107.7"/>
	<line class="st0" x1="61.8" y1="112.8" x2="61.8" y2="156.5"/>
	<line class="st0" x1="43.9" y1="161.9" x2="14.3" y2="161.9"/>
	<line class="st0" x1="53.9" y1="161.9" x2="59.9" y2="161.9"/>
	<line class="st0" x1="61.8" y1="142.7" x2="68.8" y2="142.7"/>
	<polyline class="st0" points="78.3,142.9 91.6,142.9 91.6,140.2 116,140.2 116,142.9 184.3,142.9 184.3,136.7 187.9,136.7 	"/>
	<line class="st0" x1="196.5" y1="137.8" x2="199" y2="137.8"/>
	<path class="st0" d="M158.6,142.9V92.8c0,0-1.1-9.5-10.9-9.5c-9.2,0-10.8,9.5-10.8,9.5V143"/>
	<rect x="166.7" y="107.1" class="st0" width="6.5" height="6.5"/>
	<rect x="43.6" y="31.5" class="st0" width="39.3" height="10.3"/>
	<polyline class="st0" points="43.6,38.5 40.9,38.5 40.9,34.5 43.6,34.5 	"/>
	<polyline class="st0" points="82.9,34.5 85.6,34.5 85.6,38.5 82.9,38.5 	"/>
	<line class="st0" x1="79.3" y1="31.5" x2="79.3" y2="41.8"/>
	<line class="st0" x1="47.5" y1="31.5" x2="47.5" y2="41.8"/>
	<line class="st0" x1="47.5" y1="37.2" x2="79.3" y2="37.2"/>
	<line class="st0" x1="47.5" y1="36.5" x2="79.3" y2="36.5"/>
	<line class="st0" x1="111.5" y1="8.5" x2="111.5" y2="15.8"/>
	<rect x="125" y="35.3" class="st0" width="8.9" height="6"/>
	<rect x="125" y="46.7" class="st0" width="8.9" height="6"/>
	<rect x="153.4" y="35.3" class="st0" width="8.9" height="6"/>
	<rect x="182.4" y="35.3" class="st0" width="8.9" height="6"/>
	<rect x="182.4" y="46.7" class="st0" width="8.9" height="6"/>
	<rect x="170.9" y="46.7" class="st0" width="8.9" height="6"/>
	<rect x="159.4" y="46.7" class="st0" width="8.9" height="6"/>
	<rect x="147.9" y="46.7" class="st0" width="8.9" height="6"/>
	<rect x="136.4" y="46.7" class="st0" width="8.9" height="6"/>
	<polyline class="st0" points="122,57.3 173.5,57.3 173.5,64 	"/>
	<line class="st0" x1="128.3" y1="57.3" x2="128.3" y2="64"/>
	<line class="st0" x1="160.5" y1="57.3" x2="160.5" y2="64"/>
	<line class="st0" x1="166.7" y1="57.3" x2="166.7" y2="64"/>
</g>
<line class="st0" x1="53.9" y1="164.4" x2="53.9" y2="158.4"/>
<line class="st0" x1="43.8" y1="158.4" x2="43.8" y2="164.4"/>
<path class="st0" d="M44.8,158.1c3.9,1.4,4,6.2,4,6.2s-0.4-4.1,4-6.2"/>
<line class="st0" x1="187.2" y1="138.1" x2="187.2" y2="144.1"/>
<line class="st0" x1="197.3" y1="144.1" x2="197.3" y2="138.1"/>
<path class="st0" d="M196.3,144.4c-3.9-1.4-4-6.2-4-6.2s0.4,4.1-4,6.2"/>
<line class="st0" x1="68.5" y1="144.3" x2="68.5" y2="150.3"/>
<line class="st0" x1="78.5" y1="150.3" x2="78.5" y2="144.3"/>
<path class="st0" d="M77.5,150.6c-3.9-1.4-4-6.2-4-6.2s0.4,4.1-4,6.2"/>
<g>
	<linearGradient id="SVGID_1_" gradientUnits="userSpaceOnUse" x1="106.262" y1="84.4589" x2="100.8058" y2="92.5387">
		<stop  offset="0" style="stop-color:#FFD644"/>
		<stop  offset="1" style="stop-color:#FFA72E"/>
	</linearGradient>
	<path class="st1" d="M98.6,96.5c-0.4,0.2-0.8-0.1-0.7-0.6l0.8-4.7l-3.3-3.4c-0.3-0.3-0.1-0.9,0.3-0.9l4.6-0.7l2-4.3
		c0.2-0.4,0.7-0.4,0.9,0l2,4.3l4.6,0.7c0.4,0.1,0.6,0.6,0.3,0.9l-3.3,3.4l0.8,4.7c0.1,0.4-0.3,0.8-0.7,0.6l-4.1-2.3L98.6,96.5
		L98.6,96.5z"/>
</g>
</svg>
