<svg id="Layer_1" data-name="Layer 1" xmlns="http://www.w3.org/2000/svg" viewBox="0 0 246.56 103.82"><defs><style>.cls-1{fill:#58595b;}.cls-2{fill:#fff;}.cls-3{fill:#da5422;}.cls-4{fill:#8a7d6c;}</style></defs><path class="cls-1" d="M79.15,41.37l-.49-1.91,2-.11a50.68,50.68,0,0,0,4.53-6.25l1.55,1.06a51.51,51.51,0,0,1-3.5,5l11.06-.66-2.7-2.59,1.38-1.34a70.69,70.69,0,0,1,6.36,6.55l-1.49,1.24-1.87-2.14ZM96.64,53H81.13c-.35,0-.51-.17-.51-.52V43.84a.45.45,0,0,1,.51-.51H96.64c.37,0,.55.18.55.51v8.65C97.19,52.84,97,53,96.64,53Zm-14-7.81c-.07,0-.09,0-.09.09V51l.09.11H95.12c.07,0,.11,0,.11-.11V45.29l-.11-.09Z"/><path class="cls-1" d="M103.88,39a17.86,17.86,0,0,1,2.66,2.42l-1.21,1.25a20.57,20.57,0,0,0-2.58-2.4Zm2.86,5.7a19.35,19.35,0,0,1-2.2,8.36l-1.76-.53A17.41,17.41,0,0,0,105,44.61Zm-2.67-10.78a13.82,13.82,0,0,1,2.69,2.22l-1.12,1.27a18.6,18.6,0,0,0-2.6-2.13Zm4.32,7.92-.55,2.68-1.28-.4a20.64,20.64,0,0,0,.53-2.57ZM107,41a8.68,8.68,0,0,0-.36-1.39l1.08-.15,1-1.17a8.7,8.7,0,0,0-2-1.34l.64-1.3.2.09a23.14,23.14,0,0,0,1.17-2.49l1.27.69a22.89,22.89,0,0,1-1.32,2.55l.84.64a14.92,14.92,0,0,0,.9-2l1.37.47a12.25,12.25,0,0,1-2.21,3.56l1.28-.18-.26-.79,1.32-.37a13.24,13.24,0,0,1,.77,2.9l-1.32.31-.14-.62-.83.16v4.22h-1.45v-4Zm1.43,10.67-1.46-.57.95-3.52a.47.47,0,0,1,.59-.36h11.86v-.57c0-.11-.06-.15-.17-.15H107.75V45.14h13.73a.33.33,0,0,1,.37.35v3.67h-1.52v-.61H109.51c-.22,0-.33.2-.33.5l-.16.47h13.4c.38,0,.58.17.55.48a4.86,4.86,0,0,1-.9,2.88l-.61.51c-1,.46-4.32.5-9.95.13l-.09-1.58c2,.19,3.54.33,4.76.35,2.79,0,4.42-.11,4.81-.44a3.14,3.14,0,0,0,.25-1H108.61Zm3.72-10.06c.19.66.39,1.46.55,2.31l-1.32.2a11.44,11.44,0,0,0-.58-2.24Zm5.36-6.29v1.08h-5.1V35.3Zm-.26-1.65v1.1h-4.49v-1.1Zm-.09,3.28V38H112.9v-1.1ZM117,44.39H113.1c-.11,0-.16-.07-.16-.18V40.43a.14.14,0,0,1,.16-.16H117c.11,0,.17,0,.17.16v3.78A.16.16,0,0,1,117,44.39Zm.08-5.83v1.1h-4v-1.1Zm-2.88,2.81,0,.05v1.8l0,.07h1.74l.07-.07v-1.8l-.07-.05Zm5,.2a18.77,18.77,0,0,1-.52,2.93l-1.3-.35a18.31,18.31,0,0,0,.5-2.86Zm-1.43-.77a6,6,0,0,0-.33-1.41l1.15-.13.88-1a11.14,11.14,0,0,0-1.92-1.82l.86-1.17.13.07,1.13-2.12,1.23.73c-.29.59-.73,1.36-1.34,2.33l.72.79a14.27,14.27,0,0,0,1-2.06l1.36.46A11.87,11.87,0,0,1,120.36,39l1.21-.11-.22-.68,1.27-.38a22.77,22.77,0,0,1,.88,2.73l-1.29.29-.16-.55-1,.13v4.4h-1.43V40.6Zm5,.51.75,2.84-1.3.24-.75-2.75Z"/><path class="cls-1" d="M136.46,33.23h1.85v1.54h8.95v1.79H127.37V34.77h9.09Zm6.31,18.46v.07a3.19,3.19,0,0,0,1.52,0,1,1,0,0,0,.49-.88v-5.5c0-.09-.05-.13-.14-.13H130a.12.12,0,0,0-.13.13v8.19H128V44a.41.41,0,0,1,.44-.47h17.74c.3,0,.44.16.44.47v7.65a2,2,0,0,1-.88,1.74c-.73.49-2,.51-3.94.09V51.94h-9.71a.22.22,0,0,1-.24-.25v-5a.22.22,0,0,1,.24-.24h10.41q.27,0,.27.24v5Zm1.3-9.15H130.61a.24.24,0,0,1-.27-.26V37.83a.24.24,0,0,1,.27-.26h13.46a.24.24,0,0,1,.27.26v4.45A.24.24,0,0,1,144.07,42.54Zm-11.79-3.28c-.07,0-.09,0-.07.09v1.39c0,.06,0,.08.07.08h10.1l.09-.08V39.35c0-.07,0-.09-.09-.09Zm1.38,8.83q-.09,0-.06.06v2.09l.06.09H141l.07-.09V48.15l-.07-.06Z"/><path class="cls-1" d="M152.83,38.07,151.2,37a9.93,9.93,0,0,0,3.54-3.46h1.69l-.11.33a24.49,24.49,0,0,0,2.6,2l-1.32,1.29a22.47,22.47,0,0,1-2-1.87A18.17,18.17,0,0,1,152.83,38.07Zm1.29,6h-2.46V42.39h2.46V40.65h-1.93V39h5.43v1.7h-1.8v1.74h2.31v1.69h-2.31v6.49l1.82-.83.75,1.6a32.56,32.56,0,0,1-6.47,2.47l-.7-1.65,2.9-1Zm-1,1.65c.29,1.74.51,3.24.62,4.42l-1.67.09a28.33,28.33,0,0,0-.62-4.31Zm5.15-.22a29.47,29.47,0,0,1-.51,3.87l-1.56-.33a20.25,20.25,0,0,0,.49-3.76Zm11.27,5.17c.15.49.3.73.41.73s.11-.07.14-.22a18.23,18.23,0,0,0,.13-2.88l1.63.46c-.16,2.81-.51,4.4-1,4.73a1.22,1.22,0,0,1-.75.24,1.17,1.17,0,0,1-.9-.55A9,9,0,0,1,168,50.73c-1.07,1.6-1.82,2.66-2.22,3.12l-1.45-.9.84-1-6.25,1.17-.42-1.63,2.88-.46V49.27h-2.46V47.84h2.46V46.52H159V45.09h6.39v1.43H163v1.32h2.31v1.43H163v1.52l2-.35.22,1.36a27.3,27.3,0,0,0,2.09-3A44.54,44.54,0,0,1,166,39h-7.46V37.48h2.7V36.34h-2.11V34.82h2.11V33.41H163v1.41H165v1.52H163v1.14h3l0-4,1.67.15v3.81H171V39h-3.41a50.32,50.32,0,0,0,.82,7.54,26,26,0,0,0,1.47-5.94l1.52.22a24.76,24.76,0,0,1-2.49,8.06Zm-4.29-6.56h-6c-.14,0-.2-.06-.2-.22V40.12a.18.18,0,0,1,.2-.2h6c.13,0,.19.07.19.2V43.9C165.43,44.06,165.37,44.12,165.24,44.12Zm-4.62-2.75c-.07,0-.09,0-.07.07v1.17l.07.06h3.21l.09-.06V41.44l-.09-.07Zm9.1-7.85A17.94,17.94,0,0,1,171.46,36l-1.3.86a15.19,15.19,0,0,0-1.67-2.38Z"/><path class="cls-1" d="M178.1,39h-2.33V37.17h2.33V33.48h1.79v3.69h1.76V39h-1.76v4.15l1.16-.83,1.1,1.39A20.6,20.6,0,0,1,180.06,45l-.17.11v6.4a2.29,2.29,0,0,1-.38,1.28,1.68,1.68,0,0,1-.72.63,4.93,4.93,0,0,1-3-.24l-.11-1.85a4.67,4.67,0,0,0,2.09.25c.24-.16.35-.31.35-.49v-5l-1.62.77-1-1.49,2.64-1.19Zm11.36,14.65h-1.85V47.1A21.09,21.09,0,0,1,181.87,52l-1.28-1.43a22.48,22.48,0,0,0,6.4-5.37h-4.24V43.38h4.86V40.63h1.85v2.75h5.85v1.78h-5.19a21.14,21.14,0,0,0,6,5.35l-1.45,1.27A27.22,27.22,0,0,1,189.46,47Zm-1.54-17.89v.6a6.71,6.71,0,0,1-1,3.65A6.06,6.06,0,0,1,183,42l-.88-1.65a5.15,5.15,0,0,0,3.24-1.23,4.25,4.25,0,0,0,.85-2.77v-.6H184c-.09,0-.15.07-.15.18v2.7h-1.79V34.38c0-.22.09-.33.31-.33h12.06l1.54.77a14.86,14.86,0,0,1-.88,3.65l-1.69-.55L194,36c0-.18-.07-.27-.22-.27h-2.14v3.5a.84.84,0,0,0,.29.66,1,1,0,0,0,.64.29h1.19a.77.77,0,0,0,.48-.2l.31-1.34,1.54.48a5.3,5.3,0,0,1-.49,2,1.57,1.57,0,0,1-1.14.64h-2.86a1.8,1.8,0,0,1-1.17-.57,1.68,1.68,0,0,1-.48-1.1V35.74Z"/><path class="cls-1" d="M206.75,49.69a16.32,16.32,0,0,1-6.14,3.59l-.92-1.67a14.32,14.32,0,0,0,5.8-3.33Zm-6.05-1.6-.46-1.74,6.77-.42.64-.48A23.74,23.74,0,0,0,203,42.67l.68-1.65a8.92,8.92,0,0,1,1.72.82l.33.24,2.35-2.33h-5.85c-.11,0-.18.06-.18.15v3.19h-1.87v-4.8c0-.22.11-.33.35-.33h8.52V36.38h-8.23V34.6h8.23V33.41h1.85V34.6h8.18v1.78h-8.18V38h7.79l1.62.82a18,18,0,0,1-1,4.55l-1.78-.61a15.07,15.07,0,0,0,.66-2.71c0-.18-.06-.26-.24-.26h-7.5c-.82.92-1.92,2-3.3,3.28L209,44.32c1.25-1.14,2.53-2.4,3.78-3.74l1.28,1.23a43.06,43.06,0,0,1-4,3.9l6.1-.38-1.26-1.51,1.43-1.06A44.59,44.59,0,0,1,220.3,48l-1.47.94-1.41-2-6.58.46V53.7H209V47.51Zm13.27.17a65.35,65.35,0,0,1,6.11,3.7L219,53.48A51.83,51.83,0,0,0,213,49.85Z"/><path class="cls-1" d="M225.29,38.32l-1.58-1.13c2.18-1.27,3.59-2.5,4.18-3.63h1.72l-.14.33c1,.75,2,1.43,3,2.09v-.74a.29.29,0,0,1,.33-.33h4.75v-1.5h1.87v1.5h3.5l1.54.77a15.82,15.82,0,0,1-.9,3.6L242,38.76a12.64,12.64,0,0,0,.51-1.9c0-.17-.07-.26-.22-.26h-7.9c-.11,0-.16.07-.16.18V39h-1.71v-3l-1.19,1.32a27.05,27.05,0,0,1-2.6-2.13A15.4,15.4,0,0,1,225.29,38.32Zm-.81,15.35L224,51.85l1.12-.18V39.09a.45.45,0,0,1,.51-.49h2V36.67h1.7V38.6h2.22c.35,0,.53.18.53.49V47.4a.48.48,0,0,1-.55.55h-4.69v3.37l1.28-.31,2.35-.57-.62-1.34,1.61-.6c1,2.45,1.61,4,1.78,4.54l-1.63.48-.43-1.32C228.46,52.88,226.22,53.39,224.48,53.67Zm5.85-11.28V40.71c0-.28-.15-.41-.44-.41h-2.7c-.29,0-.4.13-.4.41v1.68Zm-3.54,1.69v2.18h3.26c.19,0,.28-.09.28-.29V44.08ZM243,53.43h-8.36c-.4,0-.58-.2-.58-.61V39.7a.44.44,0,0,1,.49-.5h7.9c.35,0,.52.17.52.5v5a.46.46,0,0,1-.52.53h-6.6v1.57h7.19c.4,0,.59.19.59.57v5.43A.57.57,0,0,1,243,53.43Zm-7.15-9.92h5.08a.24.24,0,0,0,.26-.27V41.13a.23.23,0,0,0-.26-.24h-4.86a.21.21,0,0,0-.22.24Zm0,5v2.93c0,.15.06.22.17.22h5.5c.13,0,.2-.07.2-.22V48.66a.18.18,0,0,0-.2-.2Z"/><rect class="cls-1" x="80.23" y="58.4" width="164.47" height="10.96"/><path class="cls-2" d="M84.76,66.79V61.9H83v-1h4.67v1H86v4.89Z"/><path class="cls-2" d="M94.22,66.79H92.93l-.52-1.33H90.06l-.49,1.33H88.31l2.3-5.88h1.25ZM92,64.46l-.81-2.18-.79,2.18Z"/><path class="cls-2" d="M95.26,66.79V60.91h1.19v5.88Z"/><path class="cls-2" d="M98.87,66.79l-1.4-5.88h1.21l.89,4,1.07-4h1.42l1,4.11.9-4.11h1.2l-1.43,5.88H102.5l-1.17-4.4-1.17,4.4Z"/><path class="cls-2" d="M111.55,66.79h-1.29l-.51-1.33h-2.36l-.48,1.33h-1.26l2.29-5.88h1.26Zm-2.18-2.33-.82-2.18-.79,2.18Z"/><path class="cls-2" d="M112.65,66.79V60.91h1.15l2.41,3.93V60.91h1.1v5.88h-1.19L113.75,63v3.84Z"/><path class="cls-2" d="M121.76,66.79V60.91H123v2.31h2.33V60.91h1.19v5.88h-1.19V64.22H123v2.57Z"/><path class="cls-2" d="M128.11,66.79V60.91h1.19v5.88Z"/><path class="cls-2" d="M133.62,64.63v-1h2.56V66a3.38,3.38,0,0,1-1.08.64,4,4,0,0,1-1.44.27,3.33,3.33,0,0,1-1.61-.38,2.52,2.52,0,0,1-1-1.11,3.6,3.6,0,0,1-.34-1.57,3.44,3.44,0,0,1,.38-1.63,2.67,2.67,0,0,1,1.13-1.1,3.13,3.13,0,0,1,1.41-.29,2.78,2.78,0,0,1,1.71.46,2,2,0,0,1,.79,1.27l-1.18.22a1.29,1.29,0,0,0-.46-.69,1.48,1.48,0,0,0-.86-.25,1.62,1.62,0,0,0-1.24.5,2,2,0,0,0-.46,1.46,2.3,2.3,0,0,0,.47,1.57,1.55,1.55,0,0,0,1.22.53,2,2,0,0,0,.75-.15,2.61,2.61,0,0,0,.64-.36v-.74Z"/><path class="cls-2" d="M137.73,66.79V60.91h1.19v2.31h2.33V60.91h1.19v5.88h-1.19V64.22h-2.33v2.57Z"/><path class="cls-2" d="M146.55,64.88l1.16-.11a1.43,1.43,0,0,0,.42.85,1.28,1.28,0,0,0,.86.27,1.37,1.37,0,0,0,.87-.24.73.73,0,0,0,.29-.57.49.49,0,0,0-.13-.35.92.92,0,0,0-.42-.26c-.14,0-.46-.13-.95-.25a3.18,3.18,0,0,1-1.34-.59,1.49,1.49,0,0,1-.55-1.18,1.51,1.51,0,0,1,.26-.84,1.62,1.62,0,0,1,.73-.6,3.09,3.09,0,0,1,1.16-.2,2.5,2.5,0,0,1,1.67.48,1.75,1.75,0,0,1,.59,1.3l-1.19,0a1,1,0,0,0-.33-.65,1.22,1.22,0,0,0-.75-.2,1.35,1.35,0,0,0-.81.21.44.44,0,0,0-.19.37.45.45,0,0,0,.18.36,3.32,3.32,0,0,0,1.09.39,6.32,6.32,0,0,1,1.28.42,1.63,1.63,0,0,1,.89,1.54,1.74,1.74,0,0,1-.29,1,1.64,1.64,0,0,1-.79.65,3.2,3.2,0,0,1-1.28.22,2.55,2.55,0,0,1-1.71-.52A2.23,2.23,0,0,1,146.55,64.88Z"/><path class="cls-2" d="M152.79,66.79V60.91h1.9a6.82,6.82,0,0,1,1.42.09,1.59,1.59,0,0,1,.84.57,1.83,1.83,0,0,1,.34,1.15,1.94,1.94,0,0,1-.19.91,1.59,1.59,0,0,1-.5.58,1.81,1.81,0,0,1-.62.28,7.41,7.41,0,0,1-1.23.08H154v2.22ZM154,61.9v1.67h.66a3.08,3.08,0,0,0,.93-.09.79.79,0,0,0,.38-.29.86.86,0,0,0,.13-.46.75.75,0,0,0-.19-.53.87.87,0,0,0-.48-.26,6.72,6.72,0,0,0-.85,0Z"/><path class="cls-2" d="M158.72,66.79V60.91h4.36v1h-3.17v1.31h3v1h-3v1.6h3.29v1Z"/><path class="cls-2" d="M164.66,66.79V60.91H169v1h-3.18v1.31h3v1h-3v1.6h3.29v1Z"/><path class="cls-2" d="M170.59,60.91h2.17a4.5,4.5,0,0,1,1.12.11,1.92,1.92,0,0,1,.88.54,2.56,2.56,0,0,1,.57,1,4.57,4.57,0,0,1,.19,1.39,3.88,3.88,0,0,1-.18,1.25,2.69,2.69,0,0,1-.63,1,2.12,2.12,0,0,1-.84.47,3.69,3.69,0,0,1-1.05.12h-2.23Zm1.18,1v3.9h.89a3.08,3.08,0,0,0,.72-.06,1,1,0,0,0,.48-.24,1.22,1.22,0,0,0,.31-.57,3.83,3.83,0,0,0,.12-1.08,3.48,3.48,0,0,0-.12-1,1.22,1.22,0,0,0-.34-.57,1.07,1.07,0,0,0-.55-.28,5,5,0,0,0-1-.06Z"/><path class="cls-2" d="M179.72,66.79V60.91h2.5a4.16,4.16,0,0,1,1.37.16,1.32,1.32,0,0,1,.68.56,1.71,1.71,0,0,1,.26.93,1.57,1.57,0,0,1-.39,1.09,1.9,1.9,0,0,1-1.16.55,2.7,2.7,0,0,1,.63.49,6.51,6.51,0,0,1,.68,1l.72,1.15h-1.42l-.86-1.28a8.85,8.85,0,0,0-.63-.86.94.94,0,0,0-.36-.25,2.07,2.07,0,0,0-.59-.06h-.24v2.45Zm1.19-3.39h.87a4.29,4.29,0,0,0,1.07-.08.62.62,0,0,0,.33-.24.73.73,0,0,0,.13-.45.77.77,0,0,0-.16-.48.81.81,0,0,0-.45-.23c-.1,0-.39,0-.87,0h-.92Z"/><path class="cls-2" d="M191.41,66.79h-1.29l-.52-1.33h-2.35l-.49,1.33H185.5l2.3-5.88h1.25Zm-2.19-2.33-.81-2.18-.79,2.18Z"/><path class="cls-2" d="M192.45,66.79V60.91h1.19v5.88Z"/><path class="cls-2" d="M195.26,66.79V61h1.19V65.8h3v1Z"/><path class="cls-2" d="M203.42,66.79V60.91h1.78l1.06,4,1.06-4h1.78v5.88H208V62.16l-1.17,4.63h-1.14l-1.17-4.63v4.63Z"/><path class="cls-2" d="M210.73,60.91h1.18V64.1a6.25,6.25,0,0,0,.05,1,1,1,0,0,0,.36.58,1.3,1.3,0,0,0,.79.22,1.19,1.19,0,0,0,.76-.21.86.86,0,0,0,.31-.51,7.39,7.39,0,0,0,0-1V60.91h1.19V64a7.53,7.53,0,0,1-.1,1.5,1.61,1.61,0,0,1-.35.73,1.69,1.69,0,0,1-.7.48,3,3,0,0,1-1.13.18,3.28,3.28,0,0,1-1.28-.19,1.83,1.83,0,0,1-.69-.51,1.74,1.74,0,0,1-.33-.65,7.1,7.1,0,0,1-.11-1.49Z"/><path class="cls-2" d="M216.82,64.88l1.16-.11a1.43,1.43,0,0,0,.42.85,1.28,1.28,0,0,0,.86.27,1.37,1.37,0,0,0,.87-.24.73.73,0,0,0,.29-.57.49.49,0,0,0-.13-.35.92.92,0,0,0-.42-.26c-.14,0-.46-.13-1-.25a3.18,3.18,0,0,1-1.34-.59,1.49,1.49,0,0,1-.55-1.18,1.51,1.51,0,0,1,.26-.84A1.62,1.62,0,0,1,218,61a3.09,3.09,0,0,1,1.16-.2,2.52,2.52,0,0,1,1.67.48,1.75,1.75,0,0,1,.59,1.3l-1.19,0a1,1,0,0,0-.33-.65,1.22,1.22,0,0,0-.75-.2,1.35,1.35,0,0,0-.81.21.44.44,0,0,0-.19.37.45.45,0,0,0,.18.36,3.32,3.32,0,0,0,1.09.39,6.32,6.32,0,0,1,1.28.42,1.78,1.78,0,0,1,.6,2.49,1.64,1.64,0,0,1-.79.65,3.2,3.2,0,0,1-1.28.22,2.55,2.55,0,0,1-1.71-.52A2.23,2.23,0,0,1,216.82,64.88Z"/><path class="cls-2" d="M223.06,66.79V60.91h4.36v1h-3.18v1.31h3v1h-3v1.6h3.29v1Z"/><path class="cls-2" d="M229,60.91h1.19V64.1a8.7,8.7,0,0,0,0,1,1,1,0,0,0,.37.58,1.29,1.29,0,0,0,.78.22,1.22,1.22,0,0,0,.77-.21.8.8,0,0,0,.3-.51,5.74,5.74,0,0,0,.06-1V60.91h1.18V64a8.64,8.64,0,0,1-.09,1.5,1.62,1.62,0,0,1-.36.73,1.59,1.59,0,0,1-.69.48,3,3,0,0,1-1.13.18,3.28,3.28,0,0,1-1.28-.19,1.83,1.83,0,0,1-.69-.51,1.49,1.49,0,0,1-.33-.65,7,7,0,0,1-.12-1.49Z"/><path class="cls-2" d="M235.36,66.79V60.91h1.78l1.07,4,1-4h1.79v5.88h-1.11V62.16l-1.17,4.63h-1.14l-1.16-4.63v4.63Z"/><rect class="cls-3" x="51.22" y="94.05" width="2.33" height="6.99"/><path class="cls-3" d="M51.22,71.08V76l1.16,0,1.17,0V71.08Z"/><path class="cls-3" d="M52.38,78.87c-.39,0-.77,0-1.16,0V90c.39,0,.77,0,1.16,0s.78,0,1.17,0V78.84C53.16,78.86,52.78,78.87,52.38,78.87Z"/><rect class="cls-3" x="51.22" y="1.83" width="2.33" height="7"/><path class="cls-3" d="M52.38,24.68c.4,0,.78,0,1.17,0V13.54l-1.17,0-1.16,0V24.71C51.61,24.7,52,24.68,52.38,24.68Z"/><path class="cls-3" d="M53.55,31.8V27.61c-.39,0-.77,0-1.17,0s-.77,0-1.16,0V31.8Z"/><rect class="cls-3" x="74.27" y="87.88" width="2.33" height="6.99" transform="translate(-35.58 49.95) rotate(-29.99)"/><path class="cls-3" d="M65.06,75.72l5.58,9.68c.69-.38,1.35-.78,2-1.19l-5.59-9.68C66.41,75,65.74,75.35,65.06,75.72Z"/><path class="cls-3" d="M61.19,69l2.42,4.18c.69-.37,1.36-.76,2-1.19l-2.4-4.16Z"/><rect class="cls-3" x="28.16" y="8.01" width="2.33" height="6.99" transform="translate(-1.82 16.21) rotate(-30.01)"/><path class="cls-3" d="M40,27.69,34.43,18c-.69.37-1.37.76-2,1.16L38,28.84C38.65,28.43,39.32,28,40,27.69Z"/><path class="cls-3" d="M43.57,33.85,41.46,30.2c-.69.35-1.37.74-2,1.15L41.55,35Z"/><rect class="cls-3" x="11.29" y="24.89" width="2.33" height="7" transform="translate(-18.36 24.98) rotate(-60)"/><path class="cls-3" d="M36,40.61l-3.74-2.16c-.43.64-.83,1.31-1.2,2l3.78,2.18Z"/><path class="cls-3" d="M29.69,37,20,31.41c-.42.65-.82,1.32-1.19,2L28.5,39C28.87,38.31,29.27,37.65,29.69,37Z"/><rect class="cls-3" x="2.78" y="50.28" width="6.99" height="2.33"/><path class="cls-3" d="M25.29,51.78c0-.51,0-1,0-1.5H14.16c0,.5,0,1,0,1.5,0,.28,0,.55,0,.83H25.31C25.3,52.33,25.29,52.06,25.29,51.78Z"/><path class="cls-3" d="M32.74,50.28h-4.5c0,.49,0,1,0,1.5,0,.28,0,.55,0,.83h4.53Z"/><rect class="cls-3" x="8.96" y="73.33" width="6.99" height="2.33" transform="translate(-35.58 16.21) rotate(-30)"/><path class="cls-3" d="M34.79,60.26l-4,2.33c.35.69.73,1.37,1.14,2L36,62.27Z"/><path class="cls-3" d="M28.24,64l-9.69,5.59c.37.69.75,1.36,1.15,2l9.68-5.59C29,65.41,28.59,64.73,28.24,64Z"/><rect class="cls-3" x="71.94" y="10.34" width="6.99" height="2.33" transform="translate(27.73 71.07) rotate(-59.98)"/><path class="cls-3" d="M66.78,28.84l5.59-9.68c-.66-.4-1.34-.79-2-1.16l-5.59,9.69C65.45,28,66.12,28.43,66.78,28.84Z"/><path class="cls-3" d="M63.21,35l2.12-3.67c-.65-.41-1.33-.8-2-1.15l-2.11,3.65Z"/><rect class="cls-3" x="25.83" y="90.21" width="6.99" height="2.33" transform="translate(-64.46 71.06) rotate(-59.98)"/><path class="cls-3" d="M37.71,74.53l-5.59,9.68c.66.41,1.32.81,2,1.19l5.58-9.68C39,75.35,38.36,75,37.71,74.53Z"/><path class="cls-3" d="M41.56,67.87,39.16,72c.65.43,1.32.82,2,1.19L43.57,69Z"/><path class="cls-4" d="M66.78,28.84c-.66-.41-1.33-.8-2-1.15a26.78,26.78,0,0,0-11.2-3c-.39,0-.77,0-1.17,0s-.77,0-1.16,0a26.87,26.87,0,0,0-11.21,3c-.69.35-1.36.74-2,1.15A27.37,27.37,0,0,0,29.69,37c-.42.65-.82,1.31-1.19,2a27,27,0,0,0-3.17,11.28c0,.49,0,1,0,1.5,0,.28,0,.55,0,.83A27,27,0,0,0,28.24,64c.35.69.73,1.37,1.14,2a27.23,27.23,0,0,0,8.33,8.46c.65.43,1.32.82,2,1.19a26.82,26.82,0,0,0,11.51,3.12c.39,0,.77,0,1.16,0s.78,0,1.17,0a26.86,26.86,0,0,0,11.51-3.12c.68-.37,1.35-.77,2-1.19a27.3,27.3,0,0,0,6-5.25l-2.06-2A24.1,24.1,0,0,1,65.61,72c-.64.43-1.31.82-2,1.19A24.23,24.23,0,0,1,53.55,76l-1.17,0-1.16,0a24.23,24.23,0,0,1-10.06-2.74c-.68-.37-1.35-.76-2-1.19a24.32,24.32,0,0,1-7.27-7.4c-.41-.66-.79-1.34-1.14-2a24,24,0,0,1-2.54-10c0-.28,0-.55,0-.83,0-.51,0-1,0-1.5A24.14,24.14,0,0,1,31,40.45c.37-.69.77-1.36,1.2-2a24.23,24.23,0,0,1,7.23-7.1c.65-.41,1.33-.8,2-1.15a24.13,24.13,0,0,1,9.76-2.59c.39,0,.77,0,1.16,0s.78,0,1.17,0A23.88,23.88,0,0,1,63.3,30.2c.7.35,1.38.74,2,1.15a24.3,24.3,0,0,1,4.6,3.79l2-2A27,27,0,0,0,66.78,28.84Z"/><path class="cls-4" d="M72.65,84.21c-.66.41-1.32.81-2,1.19A38,38,0,0,1,53.55,90c-.39,0-.77,0-1.17,0s-.77,0-1.16,0A38,38,0,0,1,34.13,85.4c-.69-.38-1.35-.78-2-1.19A38.58,38.58,0,0,1,19.7,71.66c-.4-.67-.78-1.34-1.15-2a38,38,0,0,1-4.41-17c0-.28,0-.55,0-.83,0-.5,0-1,0-1.5a38.07,38.07,0,0,1,4.67-16.87c.37-.68.77-1.35,1.19-2A38.53,38.53,0,0,1,32.4,19.16c.66-.4,1.34-.79,2-1.16a38.19,38.19,0,0,1,16.79-4.46l1.16,0,1.17,0A38.06,38.06,0,0,1,70.34,18c.69.37,1.37.76,2,1.16a39.09,39.09,0,0,1,7.51,6l2-2.05A41.16,41.16,0,1,0,83,79.24l-2.05-2A38.56,38.56,0,0,1,72.65,84.21Z"/></svg>