<svg xmlns="http://www.w3.org/2000/svg" xmlns:xlink="http://www.w3.org/1999/xlink" width="152" height="89.394" viewBox="0 0 152 89.394">
  <defs>
    <filter id="Rectangle" x="23.272" y="9" width="107.455" height="71.394" filterUnits="userSpaceOnUse">
      <feOffset dx="1" dy="1" input="SourceAlpha"/>
      <feGaussianBlur stdDeviation="2" result="blur"/>
      <feFlood flood-color="#88745d" flood-opacity="0.8"/>
      <feComposite operator="in" in2="blur"/>
      <feComposite in="SourceGraphic"/>
    </filter>
    <filter id="Oval" x="0" y="19.667" width="56.545" height="49.121" filterUnits="userSpaceOnUse">
      <feOffset dx="1" dy="1" input="SourceAlpha"/>
      <feGaussianBlur stdDeviation="2" result="blur-2"/>
      <feFlood flood-color="#625446" flood-opacity="0.502"/>
      <feComposite operator="in" in2="blur-2"/>
      <feComposite in="SourceGraphic"/>
    </filter>
    <filter id="Oval_Copy" x="95.455" y="19.667" width="56.545" height="49.121" filterUnits="userSpaceOnUse">
      <feOffset dx="1" dy="1" input="SourceAlpha"/>
      <feGaussianBlur stdDeviation="2" result="blur-3"/>
      <feFlood flood-color="#625446" flood-opacity="0.502"/>
      <feComposite operator="in" in2="blur-3"/>
      <feComposite in="SourceGraphic"/>
    </filter>
    <radialGradient id="radial-gradient" cx="0.249" cy="0.064" r="1.059" gradientUnits="objectBoundingBox">
      <stop offset="0" stop-color="#d2c4b8"/>
      <stop offset="1" stop-color="#a59282"/>
    </radialGradient>
    <filter id="Rectangle-2" x="14.272" y="0" width="125.455" height="89.394" filterUnits="userSpaceOnUse">
      <feOffset dx="2" dy="2" input="SourceAlpha"/>
      <feGaussianBlur stdDeviation="5" result="blur-4"/>
      <feFlood flood-opacity="0.251"/>
      <feComposite operator="in" in2="blur-4"/>
      <feComposite in="SourceGraphic"/>
    </filter>
  </defs>
  <g id="Group" transform="translate(5 13)">
    <g transform="matrix(1, 0, 0, 1, -5, -13)" filter="url(#Rectangle)">
      <rect id="Rectangle-3" data-name="Rectangle" width="95.455" height="59.394" rx="15" transform="translate(28.27 14)" fill="#73675e"/>
    </g>
    <g transform="matrix(1, 0, 0, 1, -5, -13)" filter="url(#Oval)">
      <g id="Oval-2" data-name="Oval" transform="translate(5 24.67)" fill="none" stroke="#73675e" stroke-miterlimit="10" stroke-width="1">
        <ellipse cx="22.273" cy="18.561" rx="22.273" ry="18.561" stroke="none"/>
        <ellipse cx="22.273" cy="18.561" rx="21.773" ry="18.061" fill="none"/>
      </g>
    </g>
    <g transform="matrix(1, 0, 0, 1, -5, -13)" filter="url(#Oval_Copy)">
      <g id="Oval_Copy-2" data-name="Oval Copy" transform="translate(100.45 24.67)" fill="none" stroke="#73675e" stroke-miterlimit="10" stroke-width="1">
        <ellipse cx="22.273" cy="18.561" rx="22.273" ry="18.561" stroke="none"/>
        <ellipse cx="22.273" cy="18.561" rx="21.773" ry="18.061" fill="none"/>
      </g>
    </g>
    <g transform="matrix(1, 0, 0, 1, -5, -13)" filter="url(#Rectangle-2)">
      <rect id="Rectangle-4" data-name="Rectangle" width="95.455" height="59.394" rx="15" transform="translate(27.27 13)" fill="url(#radial-gradient)"/>
    </g>
    <rect id="Rectangle_Copy_3" data-name="Rectangle Copy 3" width="44.545" height="2" rx="1" transform="translate(47.728 6.303)" fill="#73675e"/>
    <rect id="Rectangle_Copy_2" data-name="Rectangle Copy 2" width="44.545" height="2" rx="1" transform="translate(47.728 52.091)" fill="#73675e"/>
  </g>
</svg>
