<svg id="Layer_1" data-name="Layer 1" xmlns="http://www.w3.org/2000/svg" viewBox="0 0 246.56 103.82"><defs><style>.cls-1{fill:#fff;}</style></defs><path class="cls-1" d="M79.15,41.85l-.49-1.92,2-.11a50.68,50.68,0,0,0,4.53-6.25l1.55,1.06a51.51,51.51,0,0,1-3.5,5L94.26,39l-2.7-2.59,1.38-1.34A70.69,70.69,0,0,1,99.3,41.6l-1.49,1.24L95.94,40.7ZM96.64,53.48H81.13c-.35,0-.51-.17-.51-.52V44.31a.45.45,0,0,1,.51-.51H96.64c.37,0,.55.18.55.51V53C97.19,53.31,97,53.48,96.64,53.48Zm-14-7.81c-.07,0-.09,0-.09.09V51.5l.09.12H95.12c.07,0,.11,0,.11-.12V45.76l-.11-.09Z"/><path class="cls-1" d="M103.88,39.47a18.43,18.43,0,0,1,2.66,2.42l-1.21,1.25a20.36,20.36,0,0,0-2.58-2.39Zm2.86,5.7a19.35,19.35,0,0,1-2.2,8.36L102.78,53A17.41,17.41,0,0,0,105,45.08Zm-2.67-10.78a13.82,13.82,0,0,1,2.69,2.22l-1.12,1.27a18.6,18.6,0,0,0-2.6-2.13Zm4.32,7.92L107.84,45l-1.28-.39a21.21,21.21,0,0,0,.53-2.58ZM107,41.45a8.68,8.68,0,0,0-.36-1.39l1.08-.15,1-1.17a8.7,8.7,0,0,0-2-1.34l.64-1.3.2.09a22.26,22.26,0,0,0,1.17-2.49l1.27.69a22.89,22.89,0,0,1-1.32,2.55l.84.64a14.92,14.92,0,0,0,.9-2l1.37.47a12.25,12.25,0,0,1-2.21,3.56l1.28-.18-.26-.79,1.32-.37a13.24,13.24,0,0,1,.77,2.9l-1.32.31-.14-.61-.83.15v4.22h-1.45v-4Zm1.43,10.67-1.46-.57.95-3.52a.46.46,0,0,1,.59-.35h11.86V47.1c0-.11-.06-.15-.17-.15H107.75V45.61h13.73a.33.33,0,0,1,.37.35v3.67h-1.52V49H109.51c-.22,0-.33.2-.33.5L109,50h13.4c.38,0,.58.17.55.48a4.86,4.86,0,0,1-.9,2.88l-.61.51c-1,.46-4.32.51-9.95.13l-.09-1.58c2,.2,3.54.33,4.76.35,2.79,0,4.42-.11,4.81-.44a3.14,3.14,0,0,0,.25-1H108.61Zm3.72-10c.19.66.39,1.45.55,2.3l-1.32.2a11.44,11.44,0,0,0-.58-2.24Zm5.36-6.3v1.08h-5.1V35.77Zm-.26-1.65v1.1h-4.49v-1.1Zm-.09,3.28v1.1H112.9V37.4ZM117,44.86H113.1c-.11,0-.16-.07-.16-.18V40.9c0-.11,0-.15.16-.15H117c.11,0,.17,0,.17.15v3.78A.16.16,0,0,1,117,44.86ZM117,39v1.1h-4V39Zm-2.88,2.82,0,0v1.8l0,.07h1.74l.07-.07v-1.8l-.07,0Zm5,.19A18.77,18.77,0,0,1,118.6,45l-1.3-.35a18.31,18.31,0,0,0,.5-2.86Zm-1.43-.77a6,6,0,0,0-.33-1.4l1.15-.14.88-1a11.14,11.14,0,0,0-1.92-1.82l.86-1.17.13.07,1.13-2.12,1.23.73c-.29.59-.73,1.36-1.34,2.33l.72.79a14.27,14.27,0,0,0,1-2.06l1.36.46a11.87,11.87,0,0,1-2.15,3.54l1.21-.11-.22-.68,1.27-.38a22.77,22.77,0,0,1,.88,2.73l-1.29.29-.16-.55-1,.13v4.4h-1.43V41.08Zm5,.51.75,2.84-1.3.24-.75-2.75Z"/><path class="cls-1" d="M136.46,33.7h1.85v1.54h8.95V37H127.37V35.24h9.09Zm6.31,18.46v.07a3.4,3.4,0,0,0,1.52.05,1,1,0,0,0,.49-.89v-5.5a.12.12,0,0,0-.14-.13H130a.12.12,0,0,0-.13.13v8.19H128V44.51a.41.41,0,0,1,.44-.47h17.74c.3,0,.44.16.44.47v7.65a2,2,0,0,1-.88,1.74c-.73.49-2,.51-3.94.09V52.41h-9.71a.22.22,0,0,1-.24-.25v-5a.22.22,0,0,1,.24-.24h10.41c.18,0,.27.09.27.24v5Zm1.3-9.15H130.61a.24.24,0,0,1-.27-.26V38.3a.24.24,0,0,1,.27-.26h13.46a.24.24,0,0,1,.27.26v4.45A.24.24,0,0,1,144.07,43Zm-11.79-3.28c-.07,0-.09,0-.07.09v1.39c0,.06,0,.08.07.08h10.1l.09-.08V39.82c0-.07,0-.09-.09-.09Zm1.38,8.83q-.09,0-.06.06v2.09l.06.09H141l.07-.09V48.62l-.07-.06Z"/><path class="cls-1" d="M152.83,38.54l-1.63-1.07A9.85,9.85,0,0,0,154.74,34h1.69l-.11.33a24.49,24.49,0,0,0,2.6,2l-1.32,1.29a21.1,21.1,0,0,1-2-1.87A18.17,18.17,0,0,1,152.83,38.54Zm1.29,6h-2.46V42.86h2.46V41.12h-1.93v-1.7h5.43v1.7h-1.8v1.74h2.31v1.69h-2.31V51l1.82-.83.75,1.6a32,32,0,0,1-6.47,2.47l-.7-1.65,2.9-1Zm-1,1.65c.29,1.74.51,3.24.62,4.42l-1.67.09a28.33,28.33,0,0,0-.62-4.31Zm5.15-.22a29.47,29.47,0,0,1-.51,3.87l-1.56-.33a20.25,20.25,0,0,0,.49-3.76Zm11.27,5.17c.15.49.3.73.41.73s.11-.07.14-.22a18.23,18.23,0,0,0,.13-2.88l1.63.46c-.16,2.81-.51,4.4-1,4.73a1.22,1.22,0,0,1-.75.24,1.14,1.14,0,0,1-.9-.55A8.84,8.84,0,0,1,168,51.2c-1.07,1.6-1.82,2.66-2.22,3.12l-1.45-.9.84-1-6.25,1.17L158.46,52l2.88-.46V49.74h-2.46V48.31h2.46V47H159V45.56h6.39V47H163v1.32h2.31v1.43H163v1.52l2-.35.22,1.37a27.5,27.5,0,0,0,2.09-3A44.54,44.54,0,0,1,166,39.47h-7.46V38h2.7V36.81h-2.11V35.29h2.11V33.88H163v1.41H165v1.52H163V38h3l0-4,1.67.15V38H171v1.52h-3.41a50.32,50.32,0,0,0,.82,7.55,26.26,26.26,0,0,0,1.47-5.94l1.52.21a24.76,24.76,0,0,1-2.49,8.06Zm-4.29-6.55h-6c-.14,0-.2-.07-.2-.23V40.59a.18.18,0,0,1,.2-.2h6c.13,0,.19.07.19.2v3.78C165.43,44.53,165.37,44.6,165.24,44.6Zm-4.62-2.75c-.07,0-.09,0-.07.06v1.17l.07.06h3.21l.09-.06V41.91l-.09-.06Zm9.1-7.86a17.94,17.94,0,0,1,1.74,2.44l-1.3.86a15.69,15.69,0,0,0-1.67-2.38Z"/><path class="cls-1" d="M178.1,39.45h-2.33V37.64h2.33V34h1.79v3.69h1.76v1.81h-1.76v4.16l1.16-.84,1.1,1.39a19,19,0,0,1-2.09,1.34l-.17.11V52a2.29,2.29,0,0,1-.38,1.28,1.68,1.68,0,0,1-.72.63,4.93,4.93,0,0,1-3-.24l-.11-1.85a4.67,4.67,0,0,0,2.09.25c.24-.16.35-.31.35-.49v-5l-1.62.77-1-1.49,2.64-1.19ZM189.46,54.1h-1.85V47.57a21.09,21.09,0,0,1-5.74,4.86L180.59,51a22.48,22.48,0,0,0,6.4-5.37h-4.24V43.85h4.86V41.1h1.85v2.75h5.85v1.78h-5.19a21.14,21.14,0,0,0,6,5.35l-1.45,1.27a27.22,27.22,0,0,1-5.26-4.75Zm-1.54-17.89v.6a6.71,6.71,0,0,1-1,3.65,6.06,6.06,0,0,1-3.92,2l-.88-1.65a5.15,5.15,0,0,0,3.24-1.23,4.25,4.25,0,0,0,.85-2.77v-.6H184c-.09,0-.15.07-.15.18v2.7h-1.79V34.85c0-.22.09-.33.31-.33h12.06l1.54.77a14.86,14.86,0,0,1-.88,3.65l-1.69-.55.57-1.91c0-.18-.07-.27-.22-.27h-2.14v3.5a.83.83,0,0,0,.29.66,1,1,0,0,0,.64.29h1.19a.77.77,0,0,0,.48-.2l.31-1.34,1.54.48a5.3,5.3,0,0,1-.49,2,1.54,1.54,0,0,1-1.14.64h-2.86a1.75,1.75,0,0,1-1.17-.57,1.68,1.68,0,0,1-.48-1.1V36.21Z"/><path class="cls-1" d="M206.75,50.16a16.32,16.32,0,0,1-6.14,3.59l-.92-1.67a14.32,14.32,0,0,0,5.8-3.33Zm-6.05-1.6-.46-1.74L207,46.4l.64-.48A23.74,23.74,0,0,0,203,43.14l.68-1.65a9.65,9.65,0,0,1,1.72.82l.33.24,2.35-2.33h-5.85c-.11,0-.18.06-.18.15v3.19h-1.87v-4.8c0-.22.11-.33.35-.33h8.52V36.85h-8.23V35.07h8.23V33.88h1.85v1.19h8.18v1.78h-8.18v1.58h7.79l1.62.82a18,18,0,0,1-1,4.55l-1.78-.61a15.07,15.07,0,0,0,.66-2.71c0-.18-.06-.26-.24-.26h-7.5c-.82.92-1.92,2-3.3,3.28L209,44.79c1.25-1.14,2.53-2.39,3.78-3.74l1.28,1.24a43.14,43.14,0,0,1-4,3.89l6.1-.37-1.26-1.52,1.43-1.06a44.59,44.59,0,0,1,3.94,5.22l-1.47.94-1.41-2-6.58.46v6.32H209V48Zm13.27.17a67.58,67.58,0,0,1,6.11,3.7L219,54A51.83,51.83,0,0,0,213,50.32Z"/><path class="cls-1" d="M225.29,38.79l-1.58-1.13c2.18-1.27,3.59-2.5,4.18-3.63h1.72l-.14.33c1,.75,2,1.43,3,2.1v-.75a.29.29,0,0,1,.33-.33h4.75v-1.5h1.87v1.5h3.5l1.54.77a15.82,15.82,0,0,1-.9,3.6L242,39.23a12.64,12.64,0,0,0,.51-1.9c0-.17-.07-.26-.22-.26h-7.9c-.11,0-.16.07-.16.18v2.26h-1.71v-3l-1.19,1.32a27.05,27.05,0,0,1-2.6-2.13A15.4,15.4,0,0,1,225.29,38.79Zm-.81,15.35L224,52.32l1.12-.18V39.56a.45.45,0,0,1,.51-.49h2V37.14h1.7v1.93h2.22c.35,0,.53.18.53.49v8.31a.48.48,0,0,1-.55.55h-4.69v3.37l1.28-.31,2.35-.57-.62-1.34,1.61-.6c1,2.45,1.61,4,1.78,4.54l-1.63.48-.43-1.32C228.46,53.35,226.22,53.86,224.48,54.14Zm5.85-11.28V41.19c0-.29-.15-.42-.44-.42h-2.7c-.29,0-.4.13-.4.42v1.67Zm-3.54,1.69v2.18h3.26c.19,0,.28-.09.28-.29V44.55ZM243,53.9h-8.36c-.4,0-.58-.19-.58-.61V40.17a.44.44,0,0,1,.49-.5h7.9c.35,0,.52.17.52.5v5a.46.46,0,0,1-.52.52h-6.6v1.57h7.19c.4,0,.59.19.59.57v5.43A.57.57,0,0,1,243,53.9ZM235.86,44h5.08a.24.24,0,0,0,.26-.27V41.6a.23.23,0,0,0-.26-.24h-4.86a.21.21,0,0,0-.22.24Zm0,5v2.93c0,.15.06.22.17.22h5.5c.13,0,.2-.07.2-.22V49.13a.18.18,0,0,0-.2-.2Z"/><rect class="cls-1" x="51.22" y="94.52" width="2.33" height="6.99"/><path class="cls-1" d="M51.22,71.55v4.87c.39,0,.77,0,1.16,0s.78,0,1.17,0V71.55Z"/><path class="cls-1" d="M52.38,79.34c-.39,0-.77,0-1.16,0V90.48c.39,0,.77,0,1.16,0s.78,0,1.17,0V79.31C53.16,79.33,52.78,79.34,52.38,79.34Z"/><rect class="cls-1" x="51.22" y="2.3" width="2.33" height="7"/><path class="cls-1" d="M52.38,25.15c.4,0,.78,0,1.17,0V14c-.39,0-.77,0-1.17,0s-.77,0-1.16,0V25.18C51.61,25.17,52,25.15,52.38,25.15Z"/><path class="cls-1" d="M53.55,32.27V28.08c-.39,0-.77,0-1.17,0s-.77,0-1.16,0v4.19Z"/><rect class="cls-1" x="74.27" y="88.35" width="2.33" height="6.99" transform="translate(-35.81 50.01) rotate(-29.99)"/><path class="cls-1" d="M65.06,76.19l5.58,9.68c.69-.38,1.35-.77,2-1.19L67.06,75C66.41,75.43,65.74,75.82,65.06,76.19Z"/><path class="cls-1" d="M61.19,69.5l2.42,4.18c.69-.37,1.36-.76,2-1.19l-2.4-4.16Z"/><rect class="cls-1" x="28.16" y="8.48" width="2.33" height="6.99" transform="translate(-2.06 16.27) rotate(-30.01)"/><path class="cls-1" d="M40,28.16l-5.58-9.69c-.69.37-1.37.76-2,1.16L38,29.31C38.65,28.9,39.32,28.51,40,28.16Z"/><path class="cls-1" d="M43.57,34.32l-2.11-3.65c-.69.35-1.37.74-2,1.15l2.11,3.66Z"/><rect class="cls-1" x="11.29" y="25.36" width="2.33" height="7" transform="translate(-18.76 25.21) rotate(-60)"/><path class="cls-1" d="M36,41.08l-3.74-2.16c-.43.64-.83,1.31-1.2,2l3.78,2.18Z"/><path class="cls-1" d="M29.69,37.47,20,31.88c-.42.66-.82,1.32-1.19,2l9.67,5.59C28.87,38.78,29.27,38.12,29.69,37.47Z"/><rect class="cls-1" x="2.78" y="50.75" width="6.99" height="2.33"/><path class="cls-1" d="M25.29,52.25c0-.51,0-1,0-1.5H14.16c0,.5,0,1,0,1.5,0,.28,0,.55,0,.83H25.31C25.3,52.8,25.29,52.53,25.29,52.25Z"/><path class="cls-1" d="M32.74,50.75h-4.5c0,.49,0,1,0,1.5,0,.28,0,.55,0,.83h4.53Z"/><rect class="cls-1" x="8.96" y="73.8" width="6.99" height="2.33" transform="translate(-35.82 16.27) rotate(-30)"/><path class="cls-1" d="M34.79,60.73l-4,2.33c.35.7.73,1.37,1.14,2L36,62.74Z"/><path class="cls-1" d="M28.24,64.51,18.55,70.1c.37.69.75,1.36,1.15,2l9.68-5.59C29,65.88,28.59,65.2,28.24,64.51Z"/><rect class="cls-1" x="71.94" y="10.82" width="6.99" height="2.33" transform="translate(27.32 71.3) rotate(-59.98)"/><path class="cls-1" d="M66.78,29.31l5.59-9.68c-.66-.4-1.34-.79-2-1.16l-5.59,9.69C65.45,28.51,66.12,28.9,66.78,29.31Z"/><path class="cls-1" d="M63.21,35.49l2.12-3.67c-.65-.41-1.33-.8-2-1.15l-2.11,3.65Z"/><rect class="cls-1" x="25.83" y="90.68" width="6.99" height="2.33" transform="translate(-64.87 71.3) rotate(-59.98)"/><path class="cls-1" d="M37.71,75l-5.59,9.67c.66.42,1.32.81,2,1.19l5.58-9.68C39,75.82,38.36,75.43,37.71,75Z"/><path class="cls-1" d="M41.56,68.34l-2.4,4.15c.65.43,1.32.82,2,1.19l2.41-4.17Z"/><path class="cls-1" d="M66.78,29.31c-.66-.41-1.33-.8-2-1.15a26.93,26.93,0,0,0-11.2-3c-.39,0-.77,0-1.17,0s-.77,0-1.16,0a27,27,0,0,0-11.21,3c-.69.35-1.36.74-2,1.15a27.37,27.37,0,0,0-8.3,8.16c-.42.65-.82,1.31-1.19,2a27,27,0,0,0-3.17,11.28c0,.49,0,1,0,1.5,0,.28,0,.55,0,.83a27,27,0,0,0,2.93,11.43c.35.69.73,1.37,1.14,2A27.37,27.37,0,0,0,37.71,75c.65.42,1.32.81,2,1.18a26.82,26.82,0,0,0,11.51,3.12c.39,0,.77,0,1.16,0s.78,0,1.17,0a26.86,26.86,0,0,0,11.51-3.12c.68-.37,1.35-.76,2-1.19a27.3,27.3,0,0,0,6-5.25L71,67.7a24.1,24.1,0,0,1-5.38,4.79c-.64.43-1.31.82-2,1.19a24.23,24.23,0,0,1-10.06,2.74c-.39,0-.77,0-1.17,0s-.77,0-1.16,0a24.23,24.23,0,0,1-10.06-2.74c-.68-.37-1.35-.76-2-1.19a24.32,24.32,0,0,1-7.27-7.4c-.41-.66-.79-1.33-1.14-2a24,24,0,0,1-2.54-10c0-.28,0-.55,0-.83,0-.51,0-1,0-1.5A24.14,24.14,0,0,1,31,40.92c.37-.69.77-1.36,1.2-2a24.23,24.23,0,0,1,7.23-7.1c.65-.41,1.33-.8,2-1.15a24.13,24.13,0,0,1,9.76-2.59c.39,0,.77,0,1.16,0s.78,0,1.17,0a23.88,23.88,0,0,1,9.75,2.59c.7.35,1.38.74,2,1.15a24,24,0,0,1,4.6,3.8l2-2A27,27,0,0,0,66.78,29.31Z"/><path class="cls-1" d="M72.65,84.68c-.66.42-1.32.81-2,1.19a38,38,0,0,1-17.09,4.61c-.39,0-.77,0-1.17,0s-.77,0-1.16,0a38,38,0,0,1-17.09-4.61c-.69-.38-1.35-.77-2-1.19A38.58,38.58,0,0,1,19.7,72.13c-.4-.67-.78-1.34-1.15-2a38,38,0,0,1-4.41-17c0-.28,0-.55,0-.83,0-.5,0-1,0-1.5a38.11,38.11,0,0,1,4.67-16.87c.37-.68.77-1.34,1.19-2A38.53,38.53,0,0,1,32.4,19.63c.66-.4,1.34-.79,2-1.16A38,38,0,0,1,51.22,14c.39,0,.77,0,1.16,0s.78,0,1.17,0a38,38,0,0,1,16.79,4.45c.69.37,1.37.76,2,1.16a39.09,39.09,0,0,1,7.51,6l2-2.05A41.16,41.16,0,1,0,83,79.71l-2.05-2A38.56,38.56,0,0,1,72.65,84.68Z"/><polygon class="cls-1" points="90.57 64.88 91.89 64.88 91.22 63.08 90.57 64.88"/><polygon class="cls-1" points="107.9 64.88 109.22 64.88 108.56 63.08 107.9 64.88"/><path class="cls-1" d="M80.23,58.91v11H144.7v-11Zm7.56,3.6H86.05V67.4H84.66V62.51H82.92V61.32h4.87Zm5.07,4.89,0-.06-.49-1.27H90.13l-.49,1.33H88.17l0-.13,2.32-5.95h1.39l0,.06,2.41,6Zm3.69,0H95.16V61.32h1.39Zm8.74-6-1.45,6h-1.42l0-.07-1.07-4-1.09,4.11H98.79l0-.07-1.43-6h1.42l0,.08.8,3.64,1-3.72h1.57v.07l.93,3.7.83-3.77h1.4Zm4.9,6,0-.06-.49-1.27h-2.22L107,67.4H105.5l.06-.13,2.31-5.95h1.39l0,.06,2.41,6Zm7.22,0h-1.34l0,0-2.19-3.54V67.4h-1.3V61.32h1.31L116.11,65V61.32h1.3Zm9.16,0h-1.39V64.83h-2.13V67.4h-1.39V61.32h1.39v2.31h2.13V61.32h1.39Zm2.83,0H128V61.32h1.39Zm6.88-.87,0,0a3.34,3.34,0,0,1-1.12.66,4,4,0,0,1-1.47.28,3.32,3.32,0,0,1-1.66-.4A2.54,2.54,0,0,1,130.93,66a3.76,3.76,0,0,1-.35-1.61,3.53,3.53,0,0,1,.39-1.68,2.74,2.74,0,0,1,1.17-1.14,3.22,3.22,0,0,1,1.46-.3,2.89,2.89,0,0,1,1.77.48A2.15,2.15,0,0,1,136.2,63l0,.1-1.37.25,0-.08a1.2,1.2,0,0,0-.43-.64,1.35,1.35,0,0,0-.8-.23,1.48,1.48,0,0,0-1.17.47,2,2,0,0,0-.43,1.39,2.25,2.25,0,0,0,.44,1.51,1.45,1.45,0,0,0,1.15.49,2,2,0,0,0,.71-.14,2.29,2.29,0,0,0,.58-.32v-.59h-1.36V64.05h2.76Zm6.26.87h-1.39V64.83H139V67.4h-1.39V61.32H139v2.31h2.13V61.32h1.39Z"/><path class="cls-1" d="M182.68,62.53c-.08,0-.36,0-.85,0H181v1.3h.78a4.15,4.15,0,0,0,1-.07.54.54,0,0,0,.28-.21.67.67,0,0,0,.11-.39.6.6,0,0,0-.14-.41A.66.66,0,0,0,182.68,62.53Z"/><path class="cls-1" d="M173.76,62.82a1,1,0,0,0-.5-.25,4.8,4.8,0,0,0-.95-.06h-.44v3.7h.79a3.71,3.71,0,0,0,.7,0,.9.9,0,0,0,.71-.75,3.6,3.6,0,0,0,.12-1,3.66,3.66,0,0,0-.11-1A1.19,1.19,0,0,0,173.76,62.82Z"/><polygon class="cls-1" points="187.76 64.88 189.08 64.88 188.41 63.08 187.76 64.88"/><path class="cls-1" d="M155.39,62.55a6.65,6.65,0,0,0-.84,0h-.48V64h.56a2.92,2.92,0,0,0,.9-.08.68.68,0,0,0,.32-.25.71.71,0,0,0,.12-.41.66.66,0,0,0-.16-.46A.76.76,0,0,0,155.39,62.55Z"/><path class="cls-1" d="M144.23,58.91v11h56.84v-11Zm6.91,7.68a1.79,1.79,0,0,1-.84.69,3.39,3.39,0,0,1-1.32.23A2.7,2.7,0,0,1,147.2,67a2.34,2.34,0,0,1-.75-1.57v-.1l1.35-.13,0,.09a1.24,1.24,0,0,0,.39.79,1.15,1.15,0,0,0,.79.25,1.19,1.19,0,0,0,.8-.22.62.62,0,0,0,.26-.49.48.48,0,0,0-.1-.29.87.87,0,0,0-.39-.22c-.13,0-.43-.13-.94-.26a3.32,3.32,0,0,1-1.38-.6,1.65,1.65,0,0,1-.31-2.16,1.75,1.75,0,0,1,.78-.63,3.1,3.1,0,0,1,1.2-.21,2.57,2.57,0,0,1,1.73.51,1.8,1.8,0,0,1,.63,1.37v.1l-1.38.06v-.09a.92.92,0,0,0-.29-.59,1.09,1.09,0,0,0-.69-.18,1.34,1.34,0,0,0-.75.19.35.35,0,0,0-.15.29.37.37,0,0,0,.14.28,2.83,2.83,0,0,0,1.05.37,6.22,6.22,0,0,1,1.31.43,1.85,1.85,0,0,1,.69.64,2,2,0,0,1-.05,2Zm6-2.4a1.58,1.58,0,0,1-.53.61,1.81,1.81,0,0,1-.65.3,7.78,7.78,0,0,1-1.25.08h-.68V67.4h-1.38V61.32h2a7.07,7.07,0,0,1,1.44.09,1.63,1.63,0,0,1,.9.61,1.93,1.93,0,0,1,.36,1.21A2,2,0,0,1,157.18,64.19Zm6.12,3.21h-4.68V61.32h4.56v1.19H160v1.11h3v1.19h-3v1.4h3.29Zm5.93,0h-4.67V61.32h4.56v1.19h-3.18v1.11h3v1.19h-3v1.4h3.29Zm6.2-1.7a2.69,2.69,0,0,1-.65,1.08,2.13,2.13,0,0,1-.88.49,3.53,3.53,0,0,1-1.08.13h-2.33V61.32h2.27a4.83,4.83,0,0,1,1.15.11,2.14,2.14,0,0,1,.93.57,2.7,2.7,0,0,1,.58,1,4.56,4.56,0,0,1,.2,1.43A3.79,3.79,0,0,1,175.43,65.7Zm8.1,1.7-.89-1.32a6.76,6.76,0,0,0-.61-.85.8.8,0,0,0-.32-.22,1.84,1.84,0,0,0-.56-.06H181V67.4h-1.38V61.32h2.6a4.29,4.29,0,0,1,1.4.16,1.52,1.52,0,0,1,.74.61,1.78,1.78,0,0,1,.27,1,1.67,1.67,0,0,1-.42,1.16,1.87,1.87,0,0,1-1,.53,2.69,2.69,0,0,1,.44.37,7.23,7.23,0,0,1,.68,1l.82,1.3Zm6.52,0,0-.06-.49-1.27h-2.21l-.49,1.33h-1.47l0-.13,2.32-5.95h1.39l0,.06,2.42,6Zm3.69,0h-1.39V61.32h1.39Zm5.76,0h-4.34v-6h1.39v4.84h2.95Z"/><path class="cls-1" d="M200.7,58.91v11h44v-11Zm8.5,8.49h-1.3V63.48l-1,3.92h-1.3l0-.07-1-3.85V67.4h-1.3V61.32h2l1,3.72,1-3.72h2Zm6.32-2.89a8.58,8.58,0,0,1-.1,1.52,1.84,1.84,0,0,1-.38.78,2,2,0,0,1-.73.51,3.2,3.2,0,0,1-1.17.18,3.29,3.29,0,0,1-1.32-.2,2,2,0,0,1-.72-.53,1.8,1.8,0,0,1-.36-.7,8,8,0,0,1-.11-1.51V61.32H212v3.29a5.93,5.93,0,0,0,.05,1,.82.82,0,0,0,.32.52,1.2,1.2,0,0,0,.73.2,1.14,1.14,0,0,0,.7-.19.72.72,0,0,0,.27-.44,7.32,7.32,0,0,0,0-1V61.32h1.39Zm5.89,2.08a1.79,1.79,0,0,1-.84.69,3.43,3.43,0,0,1-1.32.23,2.68,2.68,0,0,1-1.78-.54,2.34,2.34,0,0,1-.75-1.57v-.1l1.35-.13,0,.09a1.28,1.28,0,0,0,.38.79,1.48,1.48,0,0,0,1.6,0,.62.62,0,0,0,.26-.49.48.48,0,0,0-.1-.29.87.87,0,0,0-.39-.22c-.13,0-.44-.13-.94-.26a3.32,3.32,0,0,1-1.38-.6,1.65,1.65,0,0,1-.31-2.16,1.75,1.75,0,0,1,.78-.63,3.1,3.1,0,0,1,1.2-.21,2.57,2.57,0,0,1,1.73.51,1.8,1.8,0,0,1,.63,1.37v.1l-1.38.06v-.09a.92.92,0,0,0-.29-.59,1.09,1.09,0,0,0-.69-.18,1.32,1.32,0,0,0-.75.19.35.35,0,0,0-.15.29.37.37,0,0,0,.14.28,2.75,2.75,0,0,0,1.05.37,6.22,6.22,0,0,1,1.31.43,1.85,1.85,0,0,1,.69.64,2,2,0,0,1-.05,2Zm6.22.81H223V61.32h4.56v1.19h-3.18v1.11h3v1.19h-3v1.4h3.29Zm6.14-2.89a8.84,8.84,0,0,1-.09,1.52,1.84,1.84,0,0,1-.38.78,2,2,0,0,1-.73.51,3.23,3.23,0,0,1-1.17.18,3.29,3.29,0,0,1-1.32-.2,2.15,2.15,0,0,1-.73-.53,1.92,1.92,0,0,1-.35-.7,7.12,7.12,0,0,1-.12-1.51V61.32h1.39v3.29a8.25,8.25,0,0,0,0,1,.87.87,0,0,0,.33.52,1.16,1.16,0,0,0,.72.2,1.12,1.12,0,0,0,.7-.19.73.73,0,0,0,.28-.44,7.32,7.32,0,0,0,0-1V61.32h1.38Zm7.37,2.89h-1.3V63.48l-1,3.92h-1.3l0-.07-1-3.85V67.4h-1.31V61.32h2l1,3.72,1-3.72h1.95Z"/></svg>